<mxfile host="app.diagrams.net" agent="Mozilla/5.0 (Macintosh; Intel Mac OS X 10_15_7) AppleWebKit/605.1.15 (KHTML, like Gecko) Version/17.5 Safari/605.1.15" version="24.7.14">
  <diagram name="Trang-1" id="CXOMgLseQGw8SORwU2C_">
    <mxGraphModel dx="2190" dy="924" grid="1" gridSize="10" guides="1" tooltips="1" connect="1" arrows="1" fold="1" page="1" pageScale="1" pageWidth="827" pageHeight="1169" math="0" shadow="0">
      <root>
        <mxCell id="0" />
        <mxCell id="1" parent="0" />
        <mxCell id="OOxoE14an0iRBfRJhvGC-2" value="category" style="rounded=0;whiteSpace=wrap;html=1;horizontal=1;fontSize=15;" vertex="1" parent="1">
          <mxGeometry x="90" y="230" width="120" height="60" as="geometry" />
        </mxCell>
        <mxCell id="OOxoE14an0iRBfRJhvGC-3" value="name" style="ellipse;whiteSpace=wrap;html=1;horizontal=1;fontSize=15;" vertex="1" parent="1">
          <mxGeometry x="590" y="80" width="110" height="60" as="geometry" />
        </mxCell>
        <mxCell id="OOxoE14an0iRBfRJhvGC-6" value="product" style="rounded=0;whiteSpace=wrap;html=1;horizontal=1;fontSize=15;" vertex="1" parent="1">
          <mxGeometry x="580" y="230" width="120" height="60" as="geometry" />
        </mxCell>
        <mxCell id="OOxoE14an0iRBfRJhvGC-7" value="có" style="rhombus;whiteSpace=wrap;html=1;horizontal=1;fontSize=15;" vertex="1" parent="1">
          <mxGeometry x="360" y="220" width="80" height="80" as="geometry" />
        </mxCell>
        <mxCell id="OOxoE14an0iRBfRJhvGC-8" value="" style="edgeStyle=entityRelationEdgeStyle;fontSize=15;html=1;endArrow=ERzeroToMany;endFill=1;rounded=0;entryX=-0.018;entryY=0.477;entryDx=0;entryDy=0;entryPerimeter=0;horizontal=1;" edge="1" parent="1" target="OOxoE14an0iRBfRJhvGC-6">
          <mxGeometry width="100" height="100" relative="1" as="geometry">
            <mxPoint x="440" y="260" as="sourcePoint" />
            <mxPoint x="460" y="290" as="targetPoint" />
          </mxGeometry>
        </mxCell>
        <mxCell id="OOxoE14an0iRBfRJhvGC-11" value="" style="endArrow=none;html=1;rounded=0;exitX=1;exitY=0.5;exitDx=0;exitDy=0;entryX=0;entryY=0.5;entryDx=0;entryDy=0;horizontal=1;fontSize=15;" edge="1" parent="1" source="OOxoE14an0iRBfRJhvGC-2" target="OOxoE14an0iRBfRJhvGC-7">
          <mxGeometry relative="1" as="geometry">
            <mxPoint x="390" y="320" as="sourcePoint" />
            <mxPoint x="550" y="320" as="targetPoint" />
          </mxGeometry>
        </mxCell>
        <mxCell id="OOxoE14an0iRBfRJhvGC-12" value="&lt;u style=&quot;font-size: 15px;&quot;&gt;id&lt;/u&gt;" style="ellipse;whiteSpace=wrap;html=1;horizontal=1;fontSize=15;" vertex="1" parent="1">
          <mxGeometry y="80" width="110" height="60" as="geometry" />
        </mxCell>
        <mxCell id="OOxoE14an0iRBfRJhvGC-13" value="price" style="ellipse;whiteSpace=wrap;html=1;horizontal=1;fontSize=15;" vertex="1" parent="1">
          <mxGeometry x="720" y="80" width="110" height="60" as="geometry" />
        </mxCell>
        <mxCell id="OOxoE14an0iRBfRJhvGC-14" value="status" style="ellipse;whiteSpace=wrap;html=1;horizontal=1;fontSize=15;" vertex="1" parent="1">
          <mxGeometry x="90" y="370" width="110" height="60" as="geometry" />
        </mxCell>
        <mxCell id="OOxoE14an0iRBfRJhvGC-16" value="name" style="ellipse;whiteSpace=wrap;html=1;horizontal=1;fontSize=15;" vertex="1" parent="1">
          <mxGeometry x="180" y="80" width="110" height="60" as="geometry" />
        </mxCell>
        <mxCell id="OOxoE14an0iRBfRJhvGC-17" value="&lt;u style=&quot;font-size: 15px;&quot;&gt;id&lt;/u&gt;" style="ellipse;whiteSpace=wrap;html=1;horizontal=1;fontSize=15;" vertex="1" parent="1">
          <mxGeometry x="460" y="80" width="110" height="60" as="geometry" />
        </mxCell>
        <mxCell id="OOxoE14an0iRBfRJhvGC-19" value="category_id" style="ellipse;whiteSpace=wrap;html=1;horizontal=1;fontSize=15;" vertex="1" parent="1">
          <mxGeometry x="590" y="370" width="110" height="60" as="geometry" />
        </mxCell>
        <mxCell id="OOxoE14an0iRBfRJhvGC-21" value="status" style="ellipse;whiteSpace=wrap;html=1;horizontal=1;fontSize=15;" vertex="1" parent="1">
          <mxGeometry x="720" y="370" width="110" height="60" as="geometry" />
        </mxCell>
        <mxCell id="OOxoE14an0iRBfRJhvGC-23" value="stock" style="ellipse;whiteSpace=wrap;html=1;horizontal=1;fontSize=15;" vertex="1" parent="1">
          <mxGeometry x="460" y="370" width="110" height="60" as="geometry" />
        </mxCell>
        <mxCell id="OOxoE14an0iRBfRJhvGC-25" value="user" style="rounded=0;whiteSpace=wrap;html=1;horizontal=1;fontSize=15;" vertex="1" parent="1">
          <mxGeometry x="85" y="1190" width="120" height="60" as="geometry" />
        </mxCell>
        <mxCell id="OOxoE14an0iRBfRJhvGC-26" value="name" style="ellipse;whiteSpace=wrap;html=1;horizontal=1;fontSize=15;" vertex="1" parent="1">
          <mxGeometry x="660" y="1040" width="110" height="60" as="geometry" />
        </mxCell>
        <mxCell id="OOxoE14an0iRBfRJhvGC-27" value="product" style="rounded=0;whiteSpace=wrap;html=1;horizontal=1;fontSize=15;" vertex="1" parent="1">
          <mxGeometry x="650" y="1190" width="120" height="60" as="geometry" />
        </mxCell>
        <mxCell id="OOxoE14an0iRBfRJhvGC-31" value="&lt;u style=&quot;font-size: 15px;&quot;&gt;id&lt;/u&gt;" style="ellipse;whiteSpace=wrap;html=1;horizontal=1;fontSize=15;" vertex="1" parent="1">
          <mxGeometry x="-45" y="1080" width="60" height="60" as="geometry" />
        </mxCell>
        <mxCell id="OOxoE14an0iRBfRJhvGC-32" value="price" style="ellipse;whiteSpace=wrap;html=1;horizontal=1;fontSize=15;" vertex="1" parent="1">
          <mxGeometry x="790" y="1040" width="110" height="60" as="geometry" />
        </mxCell>
        <mxCell id="OOxoE14an0iRBfRJhvGC-33" value="address" style="ellipse;whiteSpace=wrap;html=1;horizontal=1;fontSize=15;" vertex="1" parent="1">
          <mxGeometry x="110" y="1330" width="90" height="60" as="geometry" />
        </mxCell>
        <mxCell id="OOxoE14an0iRBfRJhvGC-34" value="phone" style="ellipse;whiteSpace=wrap;html=1;horizontal=1;fontSize=15;" vertex="1" parent="1">
          <mxGeometry x="-50" y="1195" width="70" height="60" as="geometry" />
        </mxCell>
        <mxCell id="OOxoE14an0iRBfRJhvGC-35" value="name" style="ellipse;whiteSpace=wrap;html=1;horizontal=1;fontSize=15;" vertex="1" parent="1">
          <mxGeometry x="50" y="1040" width="60" height="60" as="geometry" />
        </mxCell>
        <mxCell id="OOxoE14an0iRBfRJhvGC-36" value="&lt;u style=&quot;font-size: 15px;&quot;&gt;id&lt;/u&gt;" style="ellipse;whiteSpace=wrap;html=1;horizontal=1;fontSize=15;" vertex="1" parent="1">
          <mxGeometry x="530" y="1040" width="110" height="60" as="geometry" />
        </mxCell>
        <mxCell id="OOxoE14an0iRBfRJhvGC-37" value="&lt;u style=&quot;font-size: 15px;&quot;&gt;id&lt;/u&gt;" style="ellipse;whiteSpace=wrap;html=1;horizontal=1;fontSize=15;" vertex="1" parent="1">
          <mxGeometry x="290" y="1035" width="80" height="60" as="geometry" />
        </mxCell>
        <mxCell id="OOxoE14an0iRBfRJhvGC-38" value="status" style="ellipse;whiteSpace=wrap;html=1;horizontal=1;fontSize=15;" vertex="1" parent="1">
          <mxGeometry x="725" y="1330" width="110" height="60" as="geometry" />
        </mxCell>
        <mxCell id="OOxoE14an0iRBfRJhvGC-40" value="stock" style="ellipse;whiteSpace=wrap;html=1;horizontal=1;fontSize=15;" vertex="1" parent="1">
          <mxGeometry x="595" y="1330" width="110" height="60" as="geometry" />
        </mxCell>
        <mxCell id="OOxoE14an0iRBfRJhvGC-41" value="product_id" style="ellipse;whiteSpace=wrap;html=1;horizontal=1;fontSize=15;" vertex="1" parent="1">
          <mxGeometry x="290" y="1330" width="100" height="60" as="geometry" />
        </mxCell>
        <mxCell id="OOxoE14an0iRBfRJhvGC-42" value="department" style="rounded=0;whiteSpace=wrap;html=1;horizontal=1;fontSize=15;" vertex="1" parent="1">
          <mxGeometry x="100" y="650" width="120" height="60" as="geometry" />
        </mxCell>
        <mxCell id="OOxoE14an0iRBfRJhvGC-43" value="sex" style="ellipse;whiteSpace=wrap;html=1;horizontal=1;fontSize=15;" vertex="1" parent="1">
          <mxGeometry x="650" y="500" width="110" height="60" as="geometry" />
        </mxCell>
        <mxCell id="OOxoE14an0iRBfRJhvGC-44" value="employee" style="rounded=0;whiteSpace=wrap;html=1;horizontal=1;fontSize=15;" vertex="1" parent="1">
          <mxGeometry x="590" y="650" width="120" height="60" as="geometry" />
        </mxCell>
        <mxCell id="OOxoE14an0iRBfRJhvGC-45" value="có" style="rhombus;whiteSpace=wrap;html=1;horizontal=1;fontSize=15;" vertex="1" parent="1">
          <mxGeometry x="370" y="640" width="80" height="80" as="geometry" />
        </mxCell>
        <mxCell id="OOxoE14an0iRBfRJhvGC-46" value="" style="edgeStyle=entityRelationEdgeStyle;fontSize=15;html=1;endArrow=ERzeroToMany;endFill=1;rounded=0;entryX=-0.018;entryY=0.477;entryDx=0;entryDy=0;entryPerimeter=0;horizontal=1;" edge="1" target="OOxoE14an0iRBfRJhvGC-44" parent="1">
          <mxGeometry width="100" height="100" relative="1" as="geometry">
            <mxPoint x="450" y="680" as="sourcePoint" />
            <mxPoint x="470" y="710" as="targetPoint" />
          </mxGeometry>
        </mxCell>
        <mxCell id="OOxoE14an0iRBfRJhvGC-47" value="" style="endArrow=none;html=1;rounded=0;exitX=1;exitY=0.5;exitDx=0;exitDy=0;entryX=0;entryY=0.5;entryDx=0;entryDy=0;horizontal=1;fontSize=15;" edge="1" source="OOxoE14an0iRBfRJhvGC-42" target="OOxoE14an0iRBfRJhvGC-45" parent="1">
          <mxGeometry relative="1" as="geometry">
            <mxPoint x="400" y="740" as="sourcePoint" />
            <mxPoint x="560" y="740" as="targetPoint" />
          </mxGeometry>
        </mxCell>
        <mxCell id="OOxoE14an0iRBfRJhvGC-48" value="&lt;u style=&quot;font-size: 15px;&quot;&gt;id&lt;/u&gt;" style="ellipse;whiteSpace=wrap;html=1;horizontal=1;fontSize=15;" vertex="1" parent="1">
          <mxGeometry x="10" y="500" width="110" height="60" as="geometry" />
        </mxCell>
        <mxCell id="OOxoE14an0iRBfRJhvGC-49" value="address" style="ellipse;whiteSpace=wrap;html=1;horizontal=1;fontSize=15;" vertex="1" parent="1">
          <mxGeometry x="780" y="500" width="110" height="60" as="geometry" />
        </mxCell>
        <mxCell id="OOxoE14an0iRBfRJhvGC-50" value="status" style="ellipse;whiteSpace=wrap;html=1;horizontal=1;fontSize=15;" vertex="1" parent="1">
          <mxGeometry x="105" y="790" width="110" height="60" as="geometry" />
        </mxCell>
        <mxCell id="OOxoE14an0iRBfRJhvGC-52" value="name" style="ellipse;whiteSpace=wrap;html=1;horizontal=1;fontSize=15;" vertex="1" parent="1">
          <mxGeometry x="190" y="500" width="110" height="60" as="geometry" />
        </mxCell>
        <mxCell id="OOxoE14an0iRBfRJhvGC-53" value="name" style="ellipse;whiteSpace=wrap;html=1;horizontal=1;fontSize=15;" vertex="1" parent="1">
          <mxGeometry x="520" y="500" width="110" height="60" as="geometry" />
        </mxCell>
        <mxCell id="OOxoE14an0iRBfRJhvGC-54" value="&lt;u style=&quot;font-size: 15px;&quot;&gt;id&lt;/u&gt;" style="ellipse;whiteSpace=wrap;html=1;horizontal=1;fontSize=15;" vertex="1" parent="1">
          <mxGeometry x="390" y="500" width="110" height="60" as="geometry" />
        </mxCell>
        <mxCell id="OOxoE14an0iRBfRJhvGC-55" value="status" style="ellipse;whiteSpace=wrap;html=1;horizontal=1;fontSize=15;" vertex="1" parent="1">
          <mxGeometry x="650" y="790" width="110" height="60" as="geometry" />
        </mxCell>
        <mxCell id="OOxoE14an0iRBfRJhvGC-56" value="department_id" style="ellipse;whiteSpace=wrap;html=1;horizontal=1;fontSize=15;" vertex="1" parent="1">
          <mxGeometry x="780" y="790" width="110" height="60" as="geometry" />
        </mxCell>
        <mxCell id="OOxoE14an0iRBfRJhvGC-57" value="dateOfBirth" style="ellipse;whiteSpace=wrap;html=1;horizontal=1;fontSize=15;" vertex="1" parent="1">
          <mxGeometry x="520" y="790" width="110" height="60" as="geometry" />
        </mxCell>
        <mxCell id="OOxoE14an0iRBfRJhvGC-58" value="phone" style="ellipse;whiteSpace=wrap;html=1;horizontal=1;fontSize=15;" vertex="1" parent="1">
          <mxGeometry x="390" y="790" width="110" height="60" as="geometry" />
        </mxCell>
        <mxCell id="OOxoE14an0iRBfRJhvGC-68" value="" style="endArrow=none;html=1;rounded=0;exitX=0.5;exitY=1;exitDx=0;exitDy=0;entryX=0;entryY=0;entryDx=0;entryDy=0;horizontal=1;fontSize=15;" edge="1" parent="1" source="OOxoE14an0iRBfRJhvGC-17" target="OOxoE14an0iRBfRJhvGC-6">
          <mxGeometry relative="1" as="geometry">
            <mxPoint x="340" y="300" as="sourcePoint" />
            <mxPoint x="500" y="300" as="targetPoint" />
          </mxGeometry>
        </mxCell>
        <mxCell id="OOxoE14an0iRBfRJhvGC-69" value="" style="endArrow=none;html=1;rounded=0;exitX=0.5;exitY=1;exitDx=0;exitDy=0;entryX=0.5;entryY=0;entryDx=0;entryDy=0;horizontal=1;fontSize=15;" edge="1" parent="1" source="OOxoE14an0iRBfRJhvGC-3" target="OOxoE14an0iRBfRJhvGC-6">
          <mxGeometry relative="1" as="geometry">
            <mxPoint x="525" y="150" as="sourcePoint" />
            <mxPoint x="590" y="240" as="targetPoint" />
          </mxGeometry>
        </mxCell>
        <mxCell id="OOxoE14an0iRBfRJhvGC-70" value="" style="endArrow=none;html=1;rounded=0;exitX=0.5;exitY=1;exitDx=0;exitDy=0;entryX=1;entryY=0;entryDx=0;entryDy=0;horizontal=1;fontSize=15;" edge="1" parent="1" source="OOxoE14an0iRBfRJhvGC-13" target="OOxoE14an0iRBfRJhvGC-6">
          <mxGeometry relative="1" as="geometry">
            <mxPoint x="655" y="150" as="sourcePoint" />
            <mxPoint x="650" y="240" as="targetPoint" />
          </mxGeometry>
        </mxCell>
        <mxCell id="OOxoE14an0iRBfRJhvGC-71" value="" style="endArrow=none;html=1;rounded=0;exitX=1;exitY=1;exitDx=0;exitDy=0;entryX=0.5;entryY=0;entryDx=0;entryDy=0;horizontal=1;fontSize=15;" edge="1" parent="1" source="OOxoE14an0iRBfRJhvGC-6" target="OOxoE14an0iRBfRJhvGC-21">
          <mxGeometry relative="1" as="geometry">
            <mxPoint x="785" y="150" as="sourcePoint" />
            <mxPoint x="770" y="360" as="targetPoint" />
          </mxGeometry>
        </mxCell>
        <mxCell id="OOxoE14an0iRBfRJhvGC-72" value="" style="endArrow=none;html=1;rounded=0;exitX=0.5;exitY=1;exitDx=0;exitDy=0;entryX=0.5;entryY=0;entryDx=0;entryDy=0;horizontal=1;fontSize=15;" edge="1" parent="1" source="OOxoE14an0iRBfRJhvGC-6" target="OOxoE14an0iRBfRJhvGC-19">
          <mxGeometry relative="1" as="geometry">
            <mxPoint x="710" y="300" as="sourcePoint" />
            <mxPoint x="785" y="380" as="targetPoint" />
          </mxGeometry>
        </mxCell>
        <mxCell id="OOxoE14an0iRBfRJhvGC-73" value="" style="endArrow=none;html=1;rounded=0;exitX=0;exitY=1;exitDx=0;exitDy=0;entryX=0.5;entryY=0;entryDx=0;entryDy=0;horizontal=1;fontSize=15;" edge="1" parent="1" source="OOxoE14an0iRBfRJhvGC-6" target="OOxoE14an0iRBfRJhvGC-23">
          <mxGeometry relative="1" as="geometry">
            <mxPoint x="650" y="300" as="sourcePoint" />
            <mxPoint x="655" y="380" as="targetPoint" />
          </mxGeometry>
        </mxCell>
        <mxCell id="OOxoE14an0iRBfRJhvGC-74" value="" style="endArrow=none;html=1;rounded=0;exitX=0.5;exitY=1;exitDx=0;exitDy=0;entryX=0.25;entryY=0;entryDx=0;entryDy=0;horizontal=1;fontSize=15;" edge="1" parent="1" target="OOxoE14an0iRBfRJhvGC-2">
          <mxGeometry relative="1" as="geometry">
            <mxPoint x="65" y="140" as="sourcePoint" />
            <mxPoint x="130" y="230" as="targetPoint" />
          </mxGeometry>
        </mxCell>
        <mxCell id="OOxoE14an0iRBfRJhvGC-75" value="" style="endArrow=none;html=1;rounded=0;exitX=0.5;exitY=1;exitDx=0;exitDy=0;entryX=0.75;entryY=0;entryDx=0;entryDy=0;horizontal=1;fontSize=15;" edge="1" parent="1" source="OOxoE14an0iRBfRJhvGC-16" target="OOxoE14an0iRBfRJhvGC-2">
          <mxGeometry relative="1" as="geometry">
            <mxPoint x="75" y="150" as="sourcePoint" />
            <mxPoint x="130" y="240" as="targetPoint" />
          </mxGeometry>
        </mxCell>
        <mxCell id="OOxoE14an0iRBfRJhvGC-76" value="" style="endArrow=none;html=1;rounded=0;exitX=0.5;exitY=1;exitDx=0;exitDy=0;entryX=0.5;entryY=0;entryDx=0;entryDy=0;horizontal=1;fontSize=15;" edge="1" parent="1" source="OOxoE14an0iRBfRJhvGC-2" target="OOxoE14an0iRBfRJhvGC-14">
          <mxGeometry relative="1" as="geometry">
            <mxPoint x="195" y="150" as="sourcePoint" />
            <mxPoint x="190" y="240" as="targetPoint" />
          </mxGeometry>
        </mxCell>
        <mxCell id="OOxoE14an0iRBfRJhvGC-79" value="" style="endArrow=none;html=1;rounded=0;exitX=0.5;exitY=1;exitDx=0;exitDy=0;horizontal=1;fontSize=15;" edge="1" parent="1" source="OOxoE14an0iRBfRJhvGC-54">
          <mxGeometry relative="1" as="geometry">
            <mxPoint x="530" y="560" as="sourcePoint" />
            <mxPoint x="590" y="650" as="targetPoint" />
          </mxGeometry>
        </mxCell>
        <mxCell id="OOxoE14an0iRBfRJhvGC-80" value="" style="endArrow=none;html=1;rounded=0;exitX=0.5;exitY=1;exitDx=0;exitDy=0;entryX=0.658;entryY=0;entryDx=0;entryDy=0;entryPerimeter=0;horizontal=1;fontSize=15;" edge="1" parent="1" source="OOxoE14an0iRBfRJhvGC-43" target="OOxoE14an0iRBfRJhvGC-44">
          <mxGeometry relative="1" as="geometry">
            <mxPoint x="660" y="560" as="sourcePoint" />
            <mxPoint x="655" y="650" as="targetPoint" />
          </mxGeometry>
        </mxCell>
        <mxCell id="OOxoE14an0iRBfRJhvGC-81" value="" style="endArrow=none;html=1;rounded=0;exitX=0.5;exitY=1;exitDx=0;exitDy=0;entryX=1;entryY=0;entryDx=0;entryDy=0;horizontal=1;fontSize=15;" edge="1" parent="1" source="OOxoE14an0iRBfRJhvGC-49" target="OOxoE14an0iRBfRJhvGC-44">
          <mxGeometry relative="1" as="geometry">
            <mxPoint x="790" y="560" as="sourcePoint" />
            <mxPoint x="715" y="650" as="targetPoint" />
          </mxGeometry>
        </mxCell>
        <mxCell id="OOxoE14an0iRBfRJhvGC-82" value="" style="endArrow=none;html=1;rounded=0;exitX=1;exitY=1;exitDx=0;exitDy=0;entryX=0.427;entryY=-0.033;entryDx=0;entryDy=0;entryPerimeter=0;horizontal=1;fontSize=15;" edge="1" parent="1" source="OOxoE14an0iRBfRJhvGC-44" target="OOxoE14an0iRBfRJhvGC-56">
          <mxGeometry relative="1" as="geometry">
            <mxPoint x="715" y="710" as="sourcePoint" />
            <mxPoint x="790" y="790" as="targetPoint" />
          </mxGeometry>
        </mxCell>
        <mxCell id="OOxoE14an0iRBfRJhvGC-83" value="" style="endArrow=none;html=1;rounded=0;exitX=0.625;exitY=1.017;exitDx=0;exitDy=0;entryX=0.445;entryY=-0.05;entryDx=0;entryDy=0;entryPerimeter=0;exitPerimeter=0;horizontal=1;fontSize=15;" edge="1" parent="1" source="OOxoE14an0iRBfRJhvGC-44" target="OOxoE14an0iRBfRJhvGC-55">
          <mxGeometry relative="1" as="geometry">
            <mxPoint x="655" y="710" as="sourcePoint" />
            <mxPoint x="660" y="790" as="targetPoint" />
          </mxGeometry>
        </mxCell>
        <mxCell id="OOxoE14an0iRBfRJhvGC-84" value="" style="endArrow=none;html=1;rounded=0;entryX=0.5;entryY=0;entryDx=0;entryDy=0;horizontal=1;fontSize=15;" edge="1" parent="1" target="OOxoE14an0iRBfRJhvGC-58">
          <mxGeometry relative="1" as="geometry">
            <mxPoint x="590" y="710" as="sourcePoint" />
            <mxPoint x="530" y="790" as="targetPoint" />
          </mxGeometry>
        </mxCell>
        <mxCell id="OOxoE14an0iRBfRJhvGC-85" value="" style="endArrow=none;html=1;rounded=0;exitX=0.5;exitY=1;exitDx=0;exitDy=0;entryX=0.25;entryY=0;entryDx=0;entryDy=0;horizontal=1;fontSize=15;" edge="1" parent="1">
          <mxGeometry relative="1" as="geometry">
            <mxPoint x="80" y="560" as="sourcePoint" />
            <mxPoint x="135" y="650" as="targetPoint" />
          </mxGeometry>
        </mxCell>
        <mxCell id="OOxoE14an0iRBfRJhvGC-86" value="" style="endArrow=none;html=1;rounded=0;exitX=0.5;exitY=1;exitDx=0;exitDy=0;entryX=0.75;entryY=0;entryDx=0;entryDy=0;horizontal=1;fontSize=15;" edge="1" parent="1" source="OOxoE14an0iRBfRJhvGC-52">
          <mxGeometry relative="1" as="geometry">
            <mxPoint x="250" y="560" as="sourcePoint" />
            <mxPoint x="195" y="650" as="targetPoint" />
          </mxGeometry>
        </mxCell>
        <mxCell id="OOxoE14an0iRBfRJhvGC-87" value="" style="endArrow=none;html=1;rounded=0;exitX=0.5;exitY=1;exitDx=0;exitDy=0;entryX=0.5;entryY=0;entryDx=0;entryDy=0;horizontal=1;fontSize=15;" edge="1" parent="1" source="OOxoE14an0iRBfRJhvGC-42">
          <mxGeometry relative="1" as="geometry">
            <mxPoint x="165" y="710" as="sourcePoint" />
            <mxPoint x="160" y="790" as="targetPoint" />
          </mxGeometry>
        </mxCell>
        <mxCell id="OOxoE14an0iRBfRJhvGC-89" value="" style="endArrow=none;html=1;rounded=0;exitX=0.333;exitY=1.017;exitDx=0;exitDy=0;entryX=0.5;entryY=0;entryDx=0;entryDy=0;exitPerimeter=0;horizontal=1;fontSize=15;" edge="1" parent="1" source="OOxoE14an0iRBfRJhvGC-44" target="OOxoE14an0iRBfRJhvGC-57">
          <mxGeometry relative="1" as="geometry">
            <mxPoint x="605" y="720" as="sourcePoint" />
            <mxPoint x="540" y="800" as="targetPoint" />
          </mxGeometry>
        </mxCell>
        <mxCell id="OOxoE14an0iRBfRJhvGC-90" value="" style="endArrow=none;html=1;rounded=0;exitX=0.5;exitY=1;exitDx=0;exitDy=0;horizontal=1;fontSize=15;" edge="1" parent="1" source="OOxoE14an0iRBfRJhvGC-53">
          <mxGeometry relative="1" as="geometry">
            <mxPoint x="540" y="570" as="sourcePoint" />
            <mxPoint x="630" y="650" as="targetPoint" />
          </mxGeometry>
        </mxCell>
        <mxCell id="OOxoE14an0iRBfRJhvGC-93" value="" style="verticalLabelPosition=bottom;verticalAlign=top;html=1;shape=mxgraph.basic.frame;dx=10;whiteSpace=wrap;horizontal=1;fontSize=15;" vertex="1" parent="1">
          <mxGeometry x="339" y="1185" width="120" height="70" as="geometry" />
        </mxCell>
        <mxCell id="OOxoE14an0iRBfRJhvGC-95" value="shopping_cart" style="text;html=1;align=center;verticalAlign=middle;resizable=0;points=[];autosize=1;strokeColor=none;fillColor=none;horizontal=1;fontSize=15;" vertex="1" parent="1">
          <mxGeometry x="340" y="1205" width="120" height="30" as="geometry" />
        </mxCell>
        <mxCell id="OOxoE14an0iRBfRJhvGC-96" value="dateOfBirth" style="ellipse;whiteSpace=wrap;html=1;horizontal=1;fontSize=15;" vertex="1" parent="1">
          <mxGeometry x="140" y="1040" width="100" height="60" as="geometry" />
        </mxCell>
        <mxCell id="OOxoE14an0iRBfRJhvGC-97" value="status" style="ellipse;whiteSpace=wrap;html=1;horizontal=1;fontSize=15;" vertex="1" parent="1">
          <mxGeometry x="-45" y="1310" width="90" height="60" as="geometry" />
        </mxCell>
        <mxCell id="OOxoE14an0iRBfRJhvGC-100" value="user_id" style="ellipse;whiteSpace=wrap;html=1;horizontal=1;fontSize=15;" vertex="1" parent="1">
          <mxGeometry x="400" y="1035" width="90" height="60" as="geometry" />
        </mxCell>
        <mxCell id="OOxoE14an0iRBfRJhvGC-101" value="quantity" style="ellipse;whiteSpace=wrap;html=1;horizontal=1;fontSize=15;" vertex="1" parent="1">
          <mxGeometry x="410" y="1330" width="90" height="55" as="geometry" />
        </mxCell>
        <mxCell id="OOxoE14an0iRBfRJhvGC-102" value="" style="endArrow=none;html=1;rounded=0;exitX=1;exitY=1;exitDx=0;exitDy=0;entryX=0;entryY=0;entryDx=0;entryDy=0;horizontal=1;fontSize=15;" edge="1" parent="1" source="OOxoE14an0iRBfRJhvGC-31" target="OOxoE14an0iRBfRJhvGC-25">
          <mxGeometry relative="1" as="geometry">
            <mxPoint x="10" y="1120" as="sourcePoint" />
            <mxPoint x="155" y="1210" as="targetPoint" />
          </mxGeometry>
        </mxCell>
        <mxCell id="OOxoE14an0iRBfRJhvGC-103" value="" style="endArrow=none;html=1;rounded=0;exitX=0.5;exitY=1;exitDx=0;exitDy=0;entryX=0.5;entryY=0;entryDx=0;entryDy=0;horizontal=1;fontSize=15;" edge="1" parent="1" source="OOxoE14an0iRBfRJhvGC-26" target="OOxoE14an0iRBfRJhvGC-27">
          <mxGeometry relative="1" as="geometry">
            <mxPoint x="762.5" y="1100" as="sourcePoint" />
            <mxPoint x="726.5" y="1190" as="targetPoint" />
          </mxGeometry>
        </mxCell>
        <mxCell id="OOxoE14an0iRBfRJhvGC-104" value="" style="endArrow=none;html=1;rounded=0;exitX=0.5;exitY=1;exitDx=0;exitDy=0;entryX=0.75;entryY=0;entryDx=0;entryDy=0;horizontal=1;fontSize=15;" edge="1" parent="1" source="OOxoE14an0iRBfRJhvGC-32" target="OOxoE14an0iRBfRJhvGC-27">
          <mxGeometry relative="1" as="geometry">
            <mxPoint x="892.5" y="1100" as="sourcePoint" />
            <mxPoint x="767.5" y="1190" as="targetPoint" />
          </mxGeometry>
        </mxCell>
        <mxCell id="OOxoE14an0iRBfRJhvGC-105" value="" style="endArrow=none;html=1;rounded=0;exitX=0;exitY=0;exitDx=90.00000000000001;exitDy=70;entryX=0.5;entryY=0;entryDx=0;entryDy=0;exitPerimeter=0;horizontal=1;fontSize=15;" edge="1" parent="1" source="OOxoE14an0iRBfRJhvGC-93" target="OOxoE14an0iRBfRJhvGC-101">
          <mxGeometry relative="1" as="geometry">
            <mxPoint x="373" y="1255" as="sourcePoint" />
            <mxPoint x="490" y="1333" as="targetPoint" />
          </mxGeometry>
        </mxCell>
        <mxCell id="OOxoE14an0iRBfRJhvGC-106" value="" style="endArrow=none;html=1;rounded=0;exitX=0.625;exitY=1.017;exitDx=0;exitDy=0;entryX=0.5;entryY=0;entryDx=0;entryDy=0;exitPerimeter=0;horizontal=1;fontSize=15;" edge="1" parent="1" target="OOxoE14an0iRBfRJhvGC-38">
          <mxGeometry relative="1" as="geometry">
            <mxPoint x="722.5" y="1251" as="sourcePoint" />
            <mxPoint x="756.5" y="1327" as="targetPoint" />
          </mxGeometry>
        </mxCell>
        <mxCell id="OOxoE14an0iRBfRJhvGC-107" value="" style="endArrow=none;html=1;rounded=0;entryX=1;entryY=0.5;entryDx=0;entryDy=0;exitX=0;exitY=0.5;exitDx=0;exitDy=0;horizontal=1;fontSize=15;" edge="1" parent="1" source="OOxoE14an0iRBfRJhvGC-25" target="OOxoE14an0iRBfRJhvGC-34">
          <mxGeometry relative="1" as="geometry">
            <mxPoint x="155" y="1270" as="sourcePoint" />
            <mxPoint x="10" y="1350" as="targetPoint" />
          </mxGeometry>
        </mxCell>
        <mxCell id="OOxoE14an0iRBfRJhvGC-108" value="" style="endArrow=none;html=1;rounded=0;exitX=0.5;exitY=1;exitDx=0;exitDy=0;entryX=0.75;entryY=0;entryDx=0;entryDy=0;horizontal=1;fontSize=15;" edge="1" parent="1" source="OOxoE14an0iRBfRJhvGC-96" target="OOxoE14an0iRBfRJhvGC-25">
          <mxGeometry relative="1" as="geometry">
            <mxPoint x="137.5" y="1100" as="sourcePoint" />
            <mxPoint x="192.5" y="1190" as="targetPoint" />
          </mxGeometry>
        </mxCell>
        <mxCell id="OOxoE14an0iRBfRJhvGC-110" value="" style="endArrow=none;html=1;rounded=0;entryX=1;entryY=0;entryDx=0;entryDy=0;horizontal=1;fontSize=15;" edge="1" parent="1" target="OOxoE14an0iRBfRJhvGC-97">
          <mxGeometry relative="1" as="geometry">
            <mxPoint x="110" y="1252" as="sourcePoint" />
            <mxPoint x="217.5" y="1330" as="targetPoint" />
          </mxGeometry>
        </mxCell>
        <mxCell id="OOxoE14an0iRBfRJhvGC-111" value="" style="endArrow=none;html=1;rounded=0;exitX=0.333;exitY=1.017;exitDx=0;exitDy=0;entryX=0.618;entryY=-0.033;entryDx=0;entryDy=0;exitPerimeter=0;entryPerimeter=0;horizontal=1;fontSize=15;" edge="1" parent="1" target="OOxoE14an0iRBfRJhvGC-40">
          <mxGeometry relative="1" as="geometry">
            <mxPoint x="687.5" y="1251" as="sourcePoint" />
            <mxPoint x="632.5" y="1330" as="targetPoint" />
          </mxGeometry>
        </mxCell>
        <mxCell id="OOxoE14an0iRBfRJhvGC-112" value="" style="endArrow=none;html=1;rounded=0;exitX=0.5;exitY=1;exitDx=0;exitDy=0;entryX=0.25;entryY=0;entryDx=0;entryDy=0;horizontal=1;fontSize=15;" edge="1" parent="1" source="OOxoE14an0iRBfRJhvGC-36" target="OOxoE14an0iRBfRJhvGC-27">
          <mxGeometry relative="1" as="geometry">
            <mxPoint x="632.5" y="1100" as="sourcePoint" />
            <mxPoint x="687.5" y="1190" as="targetPoint" />
          </mxGeometry>
        </mxCell>
        <mxCell id="OOxoE14an0iRBfRJhvGC-113" value="" style="endArrow=none;html=1;rounded=0;exitX=0;exitY=0;exitDx=30.000000000000004;exitDy=70;entryX=0.5;entryY=0;entryDx=0;entryDy=0;exitPerimeter=0;horizontal=1;fontSize=15;" edge="1" parent="1" source="OOxoE14an0iRBfRJhvGC-93" target="OOxoE14an0iRBfRJhvGC-41">
          <mxGeometry relative="1" as="geometry">
            <mxPoint x="439" y="1265" as="sourcePoint" />
            <mxPoint x="465" y="1340" as="targetPoint" />
          </mxGeometry>
        </mxCell>
        <mxCell id="OOxoE14an0iRBfRJhvGC-114" value="" style="endArrow=none;html=1;rounded=0;exitX=0.5;exitY=1;exitDx=0;exitDy=0;entryX=0.638;entryY=0.026;entryDx=0;entryDy=0;entryPerimeter=0;horizontal=1;fontSize=15;" edge="1" parent="1" source="OOxoE14an0iRBfRJhvGC-100" target="OOxoE14an0iRBfRJhvGC-93">
          <mxGeometry relative="1" as="geometry">
            <mxPoint x="424" y="1100" as="sourcePoint" />
            <mxPoint x="420" y="1180" as="targetPoint" />
          </mxGeometry>
        </mxCell>
        <mxCell id="OOxoE14an0iRBfRJhvGC-115" value="" style="endArrow=none;html=1;rounded=0;exitX=0.5;exitY=1;exitDx=0;exitDy=0;entryX=0;entryY=0;entryDx=30.000000000000004;entryDy=0;entryPerimeter=0;horizontal=1;fontSize=15;" edge="1" parent="1" source="OOxoE14an0iRBfRJhvGC-37" target="OOxoE14an0iRBfRJhvGC-93">
          <mxGeometry relative="1" as="geometry">
            <mxPoint x="364" y="1100" as="sourcePoint" />
            <mxPoint x="380" y="1180" as="targetPoint" />
          </mxGeometry>
        </mxCell>
        <mxCell id="OOxoE14an0iRBfRJhvGC-116" value="" style="endArrow=none;html=1;rounded=0;exitX=0.5;exitY=1;exitDx=0;exitDy=0;entryX=0.25;entryY=0;entryDx=0;entryDy=0;horizontal=1;fontSize=15;" edge="1" parent="1" source="OOxoE14an0iRBfRJhvGC-35" target="OOxoE14an0iRBfRJhvGC-25">
          <mxGeometry relative="1" as="geometry">
            <mxPoint x="16" y="1141" as="sourcePoint" />
            <mxPoint x="95" y="1200" as="targetPoint" />
          </mxGeometry>
        </mxCell>
        <mxCell id="OOxoE14an0iRBfRJhvGC-117" value="" style="endArrow=none;html=1;rounded=0;entryX=0.5;entryY=0;entryDx=0;entryDy=0;exitX=0.65;exitY=1.033;exitDx=0;exitDy=0;exitPerimeter=0;horizontal=1;fontSize=15;" edge="1" parent="1" source="OOxoE14an0iRBfRJhvGC-25" target="OOxoE14an0iRBfRJhvGC-33">
          <mxGeometry relative="1" as="geometry">
            <mxPoint x="95" y="1230" as="sourcePoint" />
            <mxPoint x="30" y="1235" as="targetPoint" />
          </mxGeometry>
        </mxCell>
        <mxCell id="OOxoE14an0iRBfRJhvGC-118" value="" style="edgeStyle=entityRelationEdgeStyle;fontSize=15;html=1;endArrow=ERzeroToMany;endFill=1;rounded=0;entryX=-0.018;entryY=0.477;entryDx=0;entryDy=0;entryPerimeter=0;horizontal=1;" edge="1" parent="1">
          <mxGeometry width="100" height="100" relative="1" as="geometry">
            <mxPoint x="205" y="1220.5" as="sourcePoint" />
            <mxPoint x="343" y="1219.5" as="targetPoint" />
          </mxGeometry>
        </mxCell>
        <mxCell id="OOxoE14an0iRBfRJhvGC-119" value="" style="edgeStyle=entityRelationEdgeStyle;fontSize=15;html=1;endArrow=ERzeroToMany;endFill=1;rounded=0;entryX=1;entryY=0.5;entryDx=0;entryDy=0;entryPerimeter=0;exitX=0;exitY=0.5;exitDx=0;exitDy=0;horizontal=1;" edge="1" parent="1" source="OOxoE14an0iRBfRJhvGC-27" target="OOxoE14an0iRBfRJhvGC-93">
          <mxGeometry width="100" height="100" relative="1" as="geometry">
            <mxPoint x="490" y="1291" as="sourcePoint" />
            <mxPoint x="628" y="1290" as="targetPoint" />
          </mxGeometry>
        </mxCell>
        <mxCell id="OOxoE14an0iRBfRJhvGC-150" value="class" style="rounded=0;whiteSpace=wrap;html=1;horizontal=1;fontSize=15;" vertex="1" parent="1">
          <mxGeometry x="55" y="1720" width="115" height="60" as="geometry" />
        </mxCell>
        <mxCell id="OOxoE14an0iRBfRJhvGC-151" value="subject_id" style="ellipse;whiteSpace=wrap;html=1;horizontal=1;fontSize=15;" vertex="1" parent="1">
          <mxGeometry x="850" y="1575" width="110" height="60" as="geometry" />
        </mxCell>
        <mxCell id="OOxoE14an0iRBfRJhvGC-152" value="mark" style="rounded=0;whiteSpace=wrap;html=1;horizontal=1;fontSize=15;" vertex="1" parent="1">
          <mxGeometry x="840" y="1725" width="120" height="60" as="geometry" />
        </mxCell>
        <mxCell id="OOxoE14an0iRBfRJhvGC-153" value="&lt;u style=&quot;font-size: 15px;&quot;&gt;class_id&lt;/u&gt;" style="ellipse;whiteSpace=wrap;html=1;horizontal=1;fontSize=15;" vertex="1" parent="1">
          <mxGeometry x="-10" y="1560" width="90" height="60" as="geometry" />
        </mxCell>
        <mxCell id="OOxoE14an0iRBfRJhvGC-154" value="student_id" style="ellipse;whiteSpace=wrap;html=1;horizontal=1;fontSize=15;" vertex="1" parent="1">
          <mxGeometry x="990" y="1575" width="110" height="60" as="geometry" />
        </mxCell>
        <mxCell id="OOxoE14an0iRBfRJhvGC-155" value="status" style="ellipse;whiteSpace=wrap;html=1;horizontal=1;fontSize=15;" vertex="1" parent="1">
          <mxGeometry x="115" y="1870" width="90" height="60" as="geometry" />
        </mxCell>
        <mxCell id="OOxoE14an0iRBfRJhvGC-157" value="class_name" style="ellipse;whiteSpace=wrap;html=1;horizontal=1;fontSize=15;" vertex="1" parent="1">
          <mxGeometry x="110" y="1560" width="90" height="60" as="geometry" />
        </mxCell>
        <mxCell id="OOxoE14an0iRBfRJhvGC-158" value="&lt;u style=&quot;font-size: 15px;&quot;&gt;id&lt;/u&gt;" style="ellipse;whiteSpace=wrap;html=1;horizontal=1;fontSize=15;" vertex="1" parent="1">
          <mxGeometry x="720" y="1575" width="110" height="60" as="geometry" />
        </mxCell>
        <mxCell id="OOxoE14an0iRBfRJhvGC-159" value="&lt;u style=&quot;font-size: 15px;&quot;&gt;student_id&lt;/u&gt;" style="ellipse;whiteSpace=wrap;html=1;horizontal=1;fontSize=15;" vertex="1" parent="1">
          <mxGeometry x="436.5" y="1560" width="80" height="60" as="geometry" />
        </mxCell>
        <mxCell id="OOxoE14an0iRBfRJhvGC-160" value="exam_time" style="ellipse;whiteSpace=wrap;html=1;horizontal=1;fontSize=15;" vertex="1" parent="1">
          <mxGeometry x="925" y="1865" width="110" height="60" as="geometry" />
        </mxCell>
        <mxCell id="OOxoE14an0iRBfRJhvGC-161" value="point" style="ellipse;whiteSpace=wrap;html=1;horizontal=1;fontSize=15;" vertex="1" parent="1">
          <mxGeometry x="785" y="1865" width="110" height="60" as="geometry" />
        </mxCell>
        <mxCell id="OOxoE14an0iRBfRJhvGC-162" value="class_id" style="ellipse;whiteSpace=wrap;html=1;horizontal=1;fontSize=15;" vertex="1" parent="1">
          <mxGeometry x="426.5" y="1857.5" width="100" height="60" as="geometry" />
        </mxCell>
        <mxCell id="OOxoE14an0iRBfRJhvGC-166" value="start_date" style="ellipse;whiteSpace=wrap;html=1;horizontal=1;fontSize=15;" vertex="1" parent="1">
          <mxGeometry x="-5" y="1870" width="90" height="60" as="geometry" />
        </mxCell>
        <mxCell id="OOxoE14an0iRBfRJhvGC-167" value="student_name" style="ellipse;whiteSpace=wrap;html=1;horizontal=1;fontSize=15;" vertex="1" parent="1">
          <mxGeometry x="590" y="1565" width="90" height="60" as="geometry" />
        </mxCell>
        <mxCell id="OOxoE14an0iRBfRJhvGC-168" value="status" style="ellipse;whiteSpace=wrap;html=1;horizontal=1;fontSize=15;" vertex="1" parent="1">
          <mxGeometry x="585" y="1857.5" width="90" height="55" as="geometry" />
        </mxCell>
        <mxCell id="OOxoE14an0iRBfRJhvGC-169" value="" style="endArrow=none;html=1;rounded=0;exitX=0.5;exitY=1;exitDx=0;exitDy=0;entryX=0.25;entryY=0;entryDx=0;entryDy=0;horizontal=1;fontSize=15;" edge="1" parent="1" source="OOxoE14an0iRBfRJhvGC-153" target="OOxoE14an0iRBfRJhvGC-150">
          <mxGeometry relative="1" as="geometry">
            <mxPoint x="80" y="1635" as="sourcePoint" />
            <mxPoint x="225" y="1725" as="targetPoint" />
          </mxGeometry>
        </mxCell>
        <mxCell id="OOxoE14an0iRBfRJhvGC-170" value="" style="endArrow=none;html=1;rounded=0;exitX=0.5;exitY=1;exitDx=0;exitDy=0;entryX=0.5;entryY=0;entryDx=0;entryDy=0;horizontal=1;fontSize=15;" edge="1" parent="1" source="OOxoE14an0iRBfRJhvGC-151" target="OOxoE14an0iRBfRJhvGC-152">
          <mxGeometry relative="1" as="geometry">
            <mxPoint x="952.5" y="1635" as="sourcePoint" />
            <mxPoint x="916.5" y="1725" as="targetPoint" />
          </mxGeometry>
        </mxCell>
        <mxCell id="OOxoE14an0iRBfRJhvGC-171" value="" style="endArrow=none;html=1;rounded=0;exitX=0.5;exitY=1;exitDx=0;exitDy=0;entryX=0.75;entryY=0;entryDx=0;entryDy=0;horizontal=1;fontSize=15;" edge="1" parent="1" target="OOxoE14an0iRBfRJhvGC-152">
          <mxGeometry relative="1" as="geometry">
            <mxPoint x="1035" y="1635" as="sourcePoint" />
            <mxPoint x="957.5" y="1725" as="targetPoint" />
          </mxGeometry>
        </mxCell>
        <mxCell id="OOxoE14an0iRBfRJhvGC-172" value="" style="endArrow=none;html=1;rounded=0;exitX=0;exitY=0;exitDx=90.00000000000001;exitDy=70;entryX=0.5;entryY=0;entryDx=0;entryDy=0;exitPerimeter=0;horizontal=1;fontSize=15;" edge="1" parent="1" target="OOxoE14an0iRBfRJhvGC-168">
          <mxGeometry relative="1" as="geometry">
            <mxPoint x="536.5" y="1780" as="sourcePoint" />
            <mxPoint x="597.5" y="1858" as="targetPoint" />
            <Array as="points" />
          </mxGeometry>
        </mxCell>
        <mxCell id="OOxoE14an0iRBfRJhvGC-173" value="" style="endArrow=none;html=1;rounded=0;exitX=0.625;exitY=1.017;exitDx=0;exitDy=0;entryX=0.5;entryY=0;entryDx=0;entryDy=0;exitPerimeter=0;horizontal=1;fontSize=15;" edge="1" parent="1">
          <mxGeometry relative="1" as="geometry">
            <mxPoint x="912.5" y="1786" as="sourcePoint" />
            <mxPoint x="970" y="1865" as="targetPoint" />
          </mxGeometry>
        </mxCell>
        <mxCell id="OOxoE14an0iRBfRJhvGC-176" value="" style="endArrow=none;html=1;rounded=0;entryX=0.5;entryY=0;entryDx=0;entryDy=0;exitX=0.25;exitY=1;exitDx=0;exitDy=0;horizontal=1;fontSize=15;" edge="1" parent="1" target="OOxoE14an0iRBfRJhvGC-166" source="OOxoE14an0iRBfRJhvGC-150">
          <mxGeometry relative="1" as="geometry">
            <mxPoint x="155" y="1770" as="sourcePoint" />
            <mxPoint x="287.5" y="1845" as="targetPoint" />
          </mxGeometry>
        </mxCell>
        <mxCell id="OOxoE14an0iRBfRJhvGC-177" value="" style="endArrow=none;html=1;rounded=0;exitX=0.333;exitY=1.017;exitDx=0;exitDy=0;entryX=0.618;entryY=-0.033;entryDx=0;entryDy=0;exitPerimeter=0;entryPerimeter=0;horizontal=1;fontSize=15;" edge="1" parent="1" target="OOxoE14an0iRBfRJhvGC-161">
          <mxGeometry relative="1" as="geometry">
            <mxPoint x="877.5" y="1786" as="sourcePoint" />
            <mxPoint x="822.5" y="1865" as="targetPoint" />
          </mxGeometry>
        </mxCell>
        <mxCell id="OOxoE14an0iRBfRJhvGC-178" value="" style="endArrow=none;html=1;rounded=0;exitX=0.5;exitY=1;exitDx=0;exitDy=0;entryX=0.25;entryY=0;entryDx=0;entryDy=0;horizontal=1;fontSize=15;" edge="1" parent="1" source="OOxoE14an0iRBfRJhvGC-158" target="OOxoE14an0iRBfRJhvGC-152">
          <mxGeometry relative="1" as="geometry">
            <mxPoint x="822.5" y="1635" as="sourcePoint" />
            <mxPoint x="877.5" y="1725" as="targetPoint" />
          </mxGeometry>
        </mxCell>
        <mxCell id="OOxoE14an0iRBfRJhvGC-179" value="" style="endArrow=none;html=1;rounded=0;exitX=0.5;exitY=1;exitDx=0;exitDy=0;entryX=0.5;entryY=0;entryDx=0;entryDy=0;horizontal=1;fontSize=15;" edge="1" parent="1" source="OOxoE14an0iRBfRJhvGC-200" target="OOxoE14an0iRBfRJhvGC-162">
          <mxGeometry relative="1" as="geometry">
            <mxPoint x="486.5" y="1780" as="sourcePoint" />
            <mxPoint x="582.5" y="1865" as="targetPoint" />
          </mxGeometry>
        </mxCell>
        <mxCell id="OOxoE14an0iRBfRJhvGC-180" value="" style="endArrow=none;html=1;rounded=0;exitX=0.5;exitY=1;exitDx=0;exitDy=0;entryX=1;entryY=0;entryDx=0;entryDy=0;horizontal=1;fontSize=15;" edge="1" parent="1" source="OOxoE14an0iRBfRJhvGC-167" target="OOxoE14an0iRBfRJhvGC-200">
          <mxGeometry relative="1" as="geometry">
            <mxPoint x="506.5" y="1630" as="sourcePoint" />
            <mxPoint x="537.5" y="1717" as="targetPoint" />
          </mxGeometry>
        </mxCell>
        <mxCell id="OOxoE14an0iRBfRJhvGC-181" value="" style="endArrow=none;html=1;rounded=0;exitX=0.5;exitY=1;exitDx=0;exitDy=0;entryX=0.5;entryY=0;entryDx=0;entryDy=0;horizontal=1;fontSize=15;" edge="1" parent="1" source="OOxoE14an0iRBfRJhvGC-159" target="OOxoE14an0iRBfRJhvGC-200">
          <mxGeometry relative="1" as="geometry">
            <mxPoint x="446.5" y="1630" as="sourcePoint" />
            <mxPoint x="467.5" y="1715" as="targetPoint" />
          </mxGeometry>
        </mxCell>
        <mxCell id="OOxoE14an0iRBfRJhvGC-182" value="" style="endArrow=none;html=1;rounded=0;exitX=0.5;exitY=1;exitDx=0;exitDy=0;entryX=0.5;entryY=0;entryDx=0;entryDy=0;horizontal=1;fontSize=15;" edge="1" parent="1" source="OOxoE14an0iRBfRJhvGC-157" target="OOxoE14an0iRBfRJhvGC-150">
          <mxGeometry relative="1" as="geometry">
            <mxPoint x="86" y="1656" as="sourcePoint" />
            <mxPoint x="165" y="1715" as="targetPoint" />
          </mxGeometry>
        </mxCell>
        <mxCell id="OOxoE14an0iRBfRJhvGC-183" value="" style="endArrow=none;html=1;rounded=0;entryX=0.5;entryY=0;entryDx=0;entryDy=0;exitX=0.5;exitY=1;exitDx=0;exitDy=0;horizontal=1;fontSize=15;" edge="1" parent="1" source="OOxoE14an0iRBfRJhvGC-150" target="OOxoE14an0iRBfRJhvGC-155">
          <mxGeometry relative="1" as="geometry">
            <mxPoint x="165" y="1745" as="sourcePoint" />
            <mxPoint x="100" y="1750" as="targetPoint" />
          </mxGeometry>
        </mxCell>
        <mxCell id="OOxoE14an0iRBfRJhvGC-186" value="subject_name" style="ellipse;whiteSpace=wrap;html=1;horizontal=1;fontSize=15;" vertex="1" parent="1">
          <mxGeometry x="475" y="1980" width="110" height="60" as="geometry" />
        </mxCell>
        <mxCell id="OOxoE14an0iRBfRJhvGC-187" value="subject" style="rounded=0;whiteSpace=wrap;html=1;horizontal=1;fontSize=15;" vertex="1" parent="1">
          <mxGeometry x="420" y="2120" width="120" height="60" as="geometry" />
        </mxCell>
        <mxCell id="OOxoE14an0iRBfRJhvGC-189" value="&lt;u style=&quot;font-size: 15px;&quot;&gt;subject_id&lt;/u&gt;" style="ellipse;whiteSpace=wrap;html=1;horizontal=1;fontSize=15;" vertex="1" parent="1">
          <mxGeometry x="326.5" y="1980" width="110" height="60" as="geometry" />
        </mxCell>
        <mxCell id="OOxoE14an0iRBfRJhvGC-190" value="status" style="ellipse;whiteSpace=wrap;html=1;horizontal=1;fontSize=15;" vertex="1" parent="1">
          <mxGeometry x="495" y="2260" width="110" height="60" as="geometry" />
        </mxCell>
        <mxCell id="OOxoE14an0iRBfRJhvGC-191" value="credit" style="ellipse;whiteSpace=wrap;html=1;horizontal=1;fontSize=15;" vertex="1" parent="1">
          <mxGeometry x="365" y="2260" width="110" height="60" as="geometry" />
        </mxCell>
        <mxCell id="OOxoE14an0iRBfRJhvGC-192" value="" style="endArrow=none;html=1;rounded=0;exitX=0.5;exitY=1;exitDx=0;exitDy=0;entryX=0.5;entryY=0;entryDx=0;entryDy=0;horizontal=1;fontSize=15;" edge="1" parent="1" source="OOxoE14an0iRBfRJhvGC-186" target="OOxoE14an0iRBfRJhvGC-187">
          <mxGeometry relative="1" as="geometry">
            <mxPoint x="532.5" y="2030" as="sourcePoint" />
            <mxPoint x="496.5" y="2120" as="targetPoint" />
          </mxGeometry>
        </mxCell>
        <mxCell id="OOxoE14an0iRBfRJhvGC-194" value="" style="endArrow=none;html=1;rounded=0;exitX=0.625;exitY=1.017;exitDx=0;exitDy=0;entryX=0.5;entryY=0;entryDx=0;entryDy=0;exitPerimeter=0;horizontal=1;fontSize=15;" edge="1" parent="1" target="OOxoE14an0iRBfRJhvGC-190">
          <mxGeometry relative="1" as="geometry">
            <mxPoint x="492.5" y="2181" as="sourcePoint" />
            <mxPoint x="526.5" y="2257" as="targetPoint" />
          </mxGeometry>
        </mxCell>
        <mxCell id="OOxoE14an0iRBfRJhvGC-195" value="" style="endArrow=none;html=1;rounded=0;exitX=0.333;exitY=1.017;exitDx=0;exitDy=0;entryX=0.618;entryY=-0.033;entryDx=0;entryDy=0;exitPerimeter=0;entryPerimeter=0;horizontal=1;fontSize=15;" edge="1" parent="1" target="OOxoE14an0iRBfRJhvGC-191">
          <mxGeometry relative="1" as="geometry">
            <mxPoint x="457.5" y="2181" as="sourcePoint" />
            <mxPoint x="402.5" y="2260" as="targetPoint" />
          </mxGeometry>
        </mxCell>
        <mxCell id="OOxoE14an0iRBfRJhvGC-196" value="" style="endArrow=none;html=1;rounded=0;exitX=0.5;exitY=1;exitDx=0;exitDy=0;entryX=0.25;entryY=0;entryDx=0;entryDy=0;horizontal=1;fontSize=15;" edge="1" parent="1" source="OOxoE14an0iRBfRJhvGC-189" target="OOxoE14an0iRBfRJhvGC-187">
          <mxGeometry relative="1" as="geometry">
            <mxPoint x="402.5" y="2030" as="sourcePoint" />
            <mxPoint x="457.5" y="2120" as="targetPoint" />
          </mxGeometry>
        </mxCell>
        <mxCell id="OOxoE14an0iRBfRJhvGC-200" value="student" style="rounded=0;whiteSpace=wrap;html=1;horizontal=1;fontSize=15;" vertex="1" parent="1">
          <mxGeometry x="416.5" y="1720" width="120" height="60" as="geometry" />
        </mxCell>
        <mxCell id="OOxoE14an0iRBfRJhvGC-201" value="phone" style="ellipse;whiteSpace=wrap;html=1;horizontal=1;fontSize=15;" vertex="1" parent="1">
          <mxGeometry x="272.5" y="1565" width="80" height="60" as="geometry" />
        </mxCell>
        <mxCell id="OOxoE14an0iRBfRJhvGC-202" value="address" style="ellipse;whiteSpace=wrap;html=1;horizontal=1;fontSize=15;" vertex="1" parent="1">
          <mxGeometry x="262.5" y="1852.5" width="100" height="60" as="geometry" />
        </mxCell>
        <mxCell id="OOxoE14an0iRBfRJhvGC-203" value="" style="endArrow=none;html=1;rounded=0;exitX=0;exitY=1;exitDx=0;exitDy=0;entryX=1;entryY=0;entryDx=0;entryDy=0;horizontal=1;fontSize=15;" edge="1" parent="1" target="OOxoE14an0iRBfRJhvGC-202" source="OOxoE14an0iRBfRJhvGC-200">
          <mxGeometry relative="1" as="geometry">
            <mxPoint x="386.5" y="1785" as="sourcePoint" />
            <mxPoint x="482.5" y="1870" as="targetPoint" />
          </mxGeometry>
        </mxCell>
        <mxCell id="OOxoE14an0iRBfRJhvGC-204" value="" style="endArrow=none;html=1;rounded=0;exitX=1;exitY=1;exitDx=0;exitDy=0;entryX=0;entryY=0;entryDx=0;entryDy=0;horizontal=1;fontSize=15;" edge="1" parent="1" source="OOxoE14an0iRBfRJhvGC-201" target="OOxoE14an0iRBfRJhvGC-200">
          <mxGeometry relative="1" as="geometry">
            <mxPoint x="346.5" y="1630" as="sourcePoint" />
            <mxPoint x="351.5" y="1715" as="targetPoint" />
          </mxGeometry>
        </mxCell>
        <mxCell id="OOxoE14an0iRBfRJhvGC-208" value="" style="edgeStyle=entityRelationEdgeStyle;fontSize=15;html=1;endArrow=ERzeroToMany;endFill=1;rounded=0;entryX=0;entryY=0.5;entryDx=0;entryDy=0;exitX=1;exitY=0.5;exitDx=0;exitDy=0;horizontal=1;" edge="1" parent="1" source="OOxoE14an0iRBfRJhvGC-229" target="OOxoE14an0iRBfRJhvGC-200">
          <mxGeometry width="100" height="100" relative="1" as="geometry">
            <mxPoint x="320" y="1750" as="sourcePoint" />
            <mxPoint x="420" y="1650" as="targetPoint" />
          </mxGeometry>
        </mxCell>
        <mxCell id="OOxoE14an0iRBfRJhvGC-227" value="" style="edgeStyle=entityRelationEdgeStyle;fontSize=15;html=1;endArrow=ERzeroToMany;endFill=1;rounded=0;entryX=0;entryY=0.5;entryDx=0;entryDy=0;exitX=1;exitY=0.5;exitDx=0;exitDy=0;horizontal=1;" edge="1" parent="1" source="OOxoE14an0iRBfRJhvGC-231" target="OOxoE14an0iRBfRJhvGC-152">
          <mxGeometry width="100" height="100" relative="1" as="geometry">
            <mxPoint x="538" y="1753" as="sourcePoint" />
            <mxPoint x="780" y="1753" as="targetPoint" />
          </mxGeometry>
        </mxCell>
        <mxCell id="OOxoE14an0iRBfRJhvGC-228" value="" style="edgeStyle=entityRelationEdgeStyle;fontSize=15;html=1;endArrow=ERzeroToMany;endFill=1;rounded=0;exitX=1;exitY=0.5;exitDx=0;exitDy=0;entryX=0;entryY=1;entryDx=0;entryDy=0;horizontal=1;" edge="1" parent="1">
          <mxGeometry width="100" height="100" relative="1" as="geometry">
            <mxPoint x="540" y="2145" as="sourcePoint" />
            <mxPoint x="840" y="1780" as="targetPoint" />
            <Array as="points">
              <mxPoint x="1080" y="1975" />
            </Array>
          </mxGeometry>
        </mxCell>
        <mxCell id="OOxoE14an0iRBfRJhvGC-229" value="có" style="rhombus;whiteSpace=wrap;html=1;horizontal=1;fontSize=15;" vertex="1" parent="1">
          <mxGeometry x="250" y="1710" width="80" height="80" as="geometry" />
        </mxCell>
        <mxCell id="OOxoE14an0iRBfRJhvGC-231" value="có" style="rhombus;whiteSpace=wrap;html=1;horizontal=1;fontSize=15;" vertex="1" parent="1">
          <mxGeometry x="630" y="1714" width="80" height="80" as="geometry" />
        </mxCell>
        <mxCell id="OOxoE14an0iRBfRJhvGC-233" value="có" style="rhombus;whiteSpace=wrap;html=1;horizontal=1;fontSize=15;" vertex="1" parent="1">
          <mxGeometry x="645" y="1925" width="80" height="80" as="geometry" />
        </mxCell>
        <mxCell id="OOxoE14an0iRBfRJhvGC-237" value="" style="endArrow=none;html=1;rounded=0;exitX=1;exitY=0.5;exitDx=0;exitDy=0;entryX=0;entryY=0.5;entryDx=0;entryDy=0;horizontal=1;fontSize=15;" edge="1" parent="1" source="OOxoE14an0iRBfRJhvGC-200" target="OOxoE14an0iRBfRJhvGC-231">
          <mxGeometry width="50" height="50" relative="1" as="geometry">
            <mxPoint x="450" y="2040" as="sourcePoint" />
            <mxPoint x="500" y="1990" as="targetPoint" />
          </mxGeometry>
        </mxCell>
        <mxCell id="OOxoE14an0iRBfRJhvGC-238" value="" style="endArrow=none;html=1;rounded=0;entryX=0;entryY=0.5;entryDx=0;entryDy=0;exitX=1;exitY=0.5;exitDx=0;exitDy=0;horizontal=1;fontSize=15;" edge="1" parent="1" source="OOxoE14an0iRBfRJhvGC-150" target="OOxoE14an0iRBfRJhvGC-229">
          <mxGeometry width="50" height="50" relative="1" as="geometry">
            <mxPoint x="450" y="2040" as="sourcePoint" />
            <mxPoint x="500" y="1990" as="targetPoint" />
          </mxGeometry>
        </mxCell>
        <mxCell id="OOxoE14an0iRBfRJhvGC-239" value="category" style="rounded=0;whiteSpace=wrap;html=1;horizontal=1;fontSize=15;" vertex="1" parent="1">
          <mxGeometry x="-80" y="2600" width="120" height="60" as="geometry" />
        </mxCell>
        <mxCell id="OOxoE14an0iRBfRJhvGC-240" value="exam" style="rounded=0;whiteSpace=wrap;html=1;horizontal=1;fontSize=15;" vertex="1" parent="1">
          <mxGeometry x="340" y="2600" width="120" height="60" as="geometry" />
        </mxCell>
        <mxCell id="OOxoE14an0iRBfRJhvGC-241" value="question" style="rounded=0;whiteSpace=wrap;html=1;horizontal=1;fontSize=15;" vertex="1" parent="1">
          <mxGeometry x="740" y="2600" width="120" height="60" as="geometry" />
        </mxCell>
        <mxCell id="OOxoE14an0iRBfRJhvGC-242" value="answer" style="rounded=0;whiteSpace=wrap;html=1;horizontal=1;fontSize=15;" vertex="1" parent="1">
          <mxGeometry x="1060" y="2600" width="120" height="60" as="geometry" />
        </mxCell>
        <mxCell id="OOxoE14an0iRBfRJhvGC-244" value="id" style="ellipse;whiteSpace=wrap;html=1;fontStyle=4;horizontal=1;fontSize=15;" vertex="1" parent="1">
          <mxGeometry x="-160" y="2470" width="110" height="60" as="geometry" />
        </mxCell>
        <mxCell id="OOxoE14an0iRBfRJhvGC-245" value="status" style="ellipse;whiteSpace=wrap;html=1;horizontal=1;fontSize=15;" vertex="1" parent="1">
          <mxGeometry x="-70" y="2740" width="110" height="60" as="geometry" />
        </mxCell>
        <mxCell id="OOxoE14an0iRBfRJhvGC-246" value="name" style="ellipse;whiteSpace=wrap;html=1;horizontal=1;fontSize=15;" vertex="1" parent="1">
          <mxGeometry x="30" y="2470" width="110" height="60" as="geometry" />
        </mxCell>
        <mxCell id="OOxoE14an0iRBfRJhvGC-248" value="" style="endArrow=none;html=1;rounded=0;exitX=0.75;exitY=0;exitDx=0;exitDy=0;horizontal=1;fontSize=15;" edge="1" parent="1" source="OOxoE14an0iRBfRJhvGC-239">
          <mxGeometry width="50" height="50" relative="1" as="geometry">
            <mxPoint x="20" y="2580" as="sourcePoint" />
            <mxPoint x="70" y="2530" as="targetPoint" />
          </mxGeometry>
        </mxCell>
        <mxCell id="OOxoE14an0iRBfRJhvGC-249" value="" style="endArrow=none;html=1;rounded=0;exitX=0.25;exitY=0;exitDx=0;exitDy=0;entryX=0.5;entryY=1;entryDx=0;entryDy=0;horizontal=1;fontSize=15;" edge="1" parent="1" source="OOxoE14an0iRBfRJhvGC-239" target="OOxoE14an0iRBfRJhvGC-244">
          <mxGeometry width="50" height="50" relative="1" as="geometry">
            <mxPoint x="20" y="2610" as="sourcePoint" />
            <mxPoint x="80" y="2540" as="targetPoint" />
          </mxGeometry>
        </mxCell>
        <mxCell id="OOxoE14an0iRBfRJhvGC-250" value="" style="endArrow=none;html=1;rounded=0;exitX=0.5;exitY=0;exitDx=0;exitDy=0;entryX=0.5;entryY=1;entryDx=0;entryDy=0;horizontal=1;fontSize=15;" edge="1" parent="1" source="OOxoE14an0iRBfRJhvGC-245">
          <mxGeometry width="50" height="50" relative="1" as="geometry">
            <mxPoint x="40" y="2730" as="sourcePoint" />
            <mxPoint x="-15" y="2660" as="targetPoint" />
          </mxGeometry>
        </mxCell>
        <mxCell id="OOxoE14an0iRBfRJhvGC-251" value="&lt;u style=&quot;font-size: 15px;&quot;&gt;id&lt;/u&gt;" style="ellipse;whiteSpace=wrap;html=1;horizontal=1;fontSize=15;" vertex="1" parent="1">
          <mxGeometry x="200" y="2490" width="110" height="60" as="geometry" />
        </mxCell>
        <mxCell id="OOxoE14an0iRBfRJhvGC-252" value="catalog_id" style="ellipse;whiteSpace=wrap;html=1;horizontal=1;fontSize=15;" vertex="1" parent="1">
          <mxGeometry x="270" y="2740" width="110" height="60" as="geometry" />
        </mxCell>
        <mxCell id="OOxoE14an0iRBfRJhvGC-253" value="name" style="ellipse;whiteSpace=wrap;html=1;horizontal=1;fontSize=15;" vertex="1" parent="1">
          <mxGeometry x="345" y="2470" width="110" height="60" as="geometry" />
        </mxCell>
        <mxCell id="OOxoE14an0iRBfRJhvGC-254" value="duration" style="ellipse;whiteSpace=wrap;html=1;horizontal=1;fontSize=15;" vertex="1" parent="1">
          <mxGeometry x="495" y="2490" width="110" height="60" as="geometry" />
        </mxCell>
        <mxCell id="OOxoE14an0iRBfRJhvGC-255" value="status" style="ellipse;whiteSpace=wrap;html=1;horizontal=1;fontSize=15;" vertex="1" parent="1">
          <mxGeometry x="436.5" y="2740" width="110" height="60" as="geometry" />
        </mxCell>
        <mxCell id="OOxoE14an0iRBfRJhvGC-256" value="&lt;u style=&quot;font-size: 15px;&quot;&gt;id&lt;/u&gt;" style="ellipse;whiteSpace=wrap;html=1;horizontal=1;fontSize=15;" vertex="1" parent="1">
          <mxGeometry x="660" y="2470" width="110" height="60" as="geometry" />
        </mxCell>
        <mxCell id="OOxoE14an0iRBfRJhvGC-257" value="" style="endArrow=none;html=1;rounded=0;entryX=0;entryY=1;entryDx=0;entryDy=0;exitX=1;exitY=0;exitDx=0;exitDy=0;horizontal=1;fontSize=15;" edge="1" parent="1" source="OOxoE14an0iRBfRJhvGC-240" target="OOxoE14an0iRBfRJhvGC-254">
          <mxGeometry width="50" height="50" relative="1" as="geometry">
            <mxPoint x="480" y="2600" as="sourcePoint" />
            <mxPoint x="530" y="2530" as="targetPoint" />
          </mxGeometry>
        </mxCell>
        <mxCell id="OOxoE14an0iRBfRJhvGC-258" value="" style="endArrow=none;html=1;rounded=0;exitX=0;exitY=0;exitDx=0;exitDy=0;entryX=0.779;entryY=0.957;entryDx=0;entryDy=0;horizontal=1;fontSize=15;entryPerimeter=0;" edge="1" parent="1" source="OOxoE14an0iRBfRJhvGC-240" target="OOxoE14an0iRBfRJhvGC-251">
          <mxGeometry width="50" height="50" relative="1" as="geometry">
            <mxPoint x="375" y="2595" as="sourcePoint" />
            <mxPoint x="320" y="2525" as="targetPoint" />
          </mxGeometry>
        </mxCell>
        <mxCell id="OOxoE14an0iRBfRJhvGC-259" value="" style="endArrow=none;html=1;rounded=0;exitX=0.5;exitY=0;exitDx=0;exitDy=0;entryX=0.328;entryY=1;entryDx=0;entryDy=0;entryPerimeter=0;horizontal=1;fontSize=15;" edge="1" parent="1" source="OOxoE14an0iRBfRJhvGC-252" target="OOxoE14an0iRBfRJhvGC-240">
          <mxGeometry width="50" height="50" relative="1" as="geometry">
            <mxPoint x="410" y="2735" as="sourcePoint" />
            <mxPoint x="394" y="2661" as="targetPoint" />
          </mxGeometry>
        </mxCell>
        <mxCell id="OOxoE14an0iRBfRJhvGC-260" value="" style="endArrow=none;html=1;rounded=0;exitX=0.5;exitY=0;exitDx=0;exitDy=0;entryX=0.664;entryY=1.006;entryDx=0;entryDy=0;entryPerimeter=0;horizontal=1;fontSize=15;" edge="1" parent="1" source="OOxoE14an0iRBfRJhvGC-255" target="OOxoE14an0iRBfRJhvGC-240">
          <mxGeometry width="50" height="50" relative="1" as="geometry">
            <mxPoint x="420" y="2745" as="sourcePoint" />
            <mxPoint x="420" y="2665" as="targetPoint" />
          </mxGeometry>
        </mxCell>
        <mxCell id="OOxoE14an0iRBfRJhvGC-261" value="" style="endArrow=none;html=1;rounded=0;exitX=0.5;exitY=0;exitDx=0;exitDy=0;entryX=0.5;entryY=1;entryDx=0;entryDy=0;horizontal=1;fontSize=15;" edge="1" parent="1" source="OOxoE14an0iRBfRJhvGC-240">
          <mxGeometry width="50" height="50" relative="1" as="geometry">
            <mxPoint x="500" y="2600" as="sourcePoint" />
            <mxPoint x="400" y="2530" as="targetPoint" />
          </mxGeometry>
        </mxCell>
        <mxCell id="OOxoE14an0iRBfRJhvGC-262" value="exam_id" style="ellipse;whiteSpace=wrap;html=1;horizontal=1;fontSize=15;" vertex="1" parent="1">
          <mxGeometry x="835" y="2470" width="110" height="60" as="geometry" />
        </mxCell>
        <mxCell id="OOxoE14an0iRBfRJhvGC-263" value="&lt;u style=&quot;font-size: 15px;&quot;&gt;id&lt;/u&gt;" style="ellipse;whiteSpace=wrap;html=1;horizontal=1;fontSize=15;" vertex="1" parent="1">
          <mxGeometry x="970" y="2470" width="110" height="60" as="geometry" />
        </mxCell>
        <mxCell id="OOxoE14an0iRBfRJhvGC-264" value="question_id" style="ellipse;whiteSpace=wrap;html=1;horizontal=1;fontSize=15;" vertex="1" parent="1">
          <mxGeometry x="1145" y="2470" width="110" height="60" as="geometry" />
        </mxCell>
        <mxCell id="OOxoE14an0iRBfRJhvGC-265" value="content" style="ellipse;whiteSpace=wrap;html=1;horizontal=1;fontSize=15;" vertex="1" parent="1">
          <mxGeometry x="990" y="2740" width="110" height="60" as="geometry" />
        </mxCell>
        <mxCell id="OOxoE14an0iRBfRJhvGC-266" value="answerTrue" style="ellipse;whiteSpace=wrap;html=1;horizontal=1;fontSize=15;" vertex="1" parent="1">
          <mxGeometry x="1145" y="2750" width="110" height="60" as="geometry" />
        </mxCell>
        <mxCell id="OOxoE14an0iRBfRJhvGC-267" value="content" style="ellipse;whiteSpace=wrap;html=1;horizontal=1;fontSize=15;" vertex="1" parent="1">
          <mxGeometry x="750" y="2740" width="110" height="60" as="geometry" />
        </mxCell>
        <mxCell id="OOxoE14an0iRBfRJhvGC-268" value="" style="endArrow=none;html=1;rounded=0;exitX=0.75;exitY=0;exitDx=0;exitDy=0;horizontal=1;fontSize=15;" edge="1" parent="1">
          <mxGeometry width="50" height="50" relative="1" as="geometry">
            <mxPoint x="827.5" y="2600" as="sourcePoint" />
            <mxPoint x="887.5" y="2530" as="targetPoint" />
          </mxGeometry>
        </mxCell>
        <mxCell id="OOxoE14an0iRBfRJhvGC-269" value="" style="endArrow=none;html=1;rounded=0;exitX=0.25;exitY=0;exitDx=0;exitDy=0;entryX=0.5;entryY=1;entryDx=0;entryDy=0;horizontal=1;fontSize=15;" edge="1" parent="1">
          <mxGeometry width="50" height="50" relative="1" as="geometry">
            <mxPoint x="767.5" y="2600" as="sourcePoint" />
            <mxPoint x="712.5" y="2530" as="targetPoint" />
          </mxGeometry>
        </mxCell>
        <mxCell id="OOxoE14an0iRBfRJhvGC-270" value="" style="endArrow=none;html=1;rounded=0;exitX=0.5;exitY=0;exitDx=0;exitDy=0;entryX=0.5;entryY=1;entryDx=0;entryDy=0;horizontal=1;fontSize=15;" edge="1" parent="1">
          <mxGeometry width="50" height="50" relative="1" as="geometry">
            <mxPoint x="802.5" y="2740" as="sourcePoint" />
            <mxPoint x="802.5" y="2660" as="targetPoint" />
          </mxGeometry>
        </mxCell>
        <mxCell id="OOxoE14an0iRBfRJhvGC-271" value="" style="endArrow=none;html=1;rounded=0;exitX=0.75;exitY=0;exitDx=0;exitDy=0;horizontal=1;fontSize=15;" edge="1" parent="1">
          <mxGeometry width="50" height="50" relative="1" as="geometry">
            <mxPoint x="1150" y="2600" as="sourcePoint" />
            <mxPoint x="1210" y="2530" as="targetPoint" />
          </mxGeometry>
        </mxCell>
        <mxCell id="OOxoE14an0iRBfRJhvGC-272" value="" style="endArrow=none;html=1;rounded=0;exitX=0.25;exitY=0;exitDx=0;exitDy=0;entryX=0.5;entryY=1;entryDx=0;entryDy=0;horizontal=1;fontSize=15;" edge="1" parent="1">
          <mxGeometry width="50" height="50" relative="1" as="geometry">
            <mxPoint x="1090" y="2600" as="sourcePoint" />
            <mxPoint x="1035" y="2530" as="targetPoint" />
          </mxGeometry>
        </mxCell>
        <mxCell id="OOxoE14an0iRBfRJhvGC-273" value="" style="endArrow=none;html=1;rounded=0;exitX=0.5;exitY=0;exitDx=0;exitDy=0;entryX=0.345;entryY=1.052;entryDx=0;entryDy=0;entryPerimeter=0;horizontal=1;fontSize=15;" edge="1" parent="1" source="OOxoE14an0iRBfRJhvGC-265" target="OOxoE14an0iRBfRJhvGC-242">
          <mxGeometry width="50" height="50" relative="1" as="geometry">
            <mxPoint x="1125" y="2740" as="sourcePoint" />
            <mxPoint x="1125" y="2660" as="targetPoint" />
          </mxGeometry>
        </mxCell>
        <mxCell id="OOxoE14an0iRBfRJhvGC-274" value="" style="endArrow=none;html=1;rounded=0;exitX=0.5;exitY=0;exitDx=0;exitDy=0;entryX=0.75;entryY=1;entryDx=0;entryDy=0;horizontal=1;fontSize=15;" edge="1" parent="1" source="OOxoE14an0iRBfRJhvGC-266" target="OOxoE14an0iRBfRJhvGC-242">
          <mxGeometry width="50" height="50" relative="1" as="geometry">
            <mxPoint x="1135" y="2750" as="sourcePoint" />
            <mxPoint x="1135" y="2670" as="targetPoint" />
          </mxGeometry>
        </mxCell>
        <mxCell id="OOxoE14an0iRBfRJhvGC-275" value="" style="edgeStyle=entityRelationEdgeStyle;fontSize=15;html=1;endArrow=ERzeroToMany;endFill=1;rounded=0;exitX=1;exitY=0.5;exitDx=0;exitDy=0;entryX=0;entryY=0.5;entryDx=0;entryDy=0;horizontal=1;" edge="1" parent="1" source="OOxoE14an0iRBfRJhvGC-239" target="OOxoE14an0iRBfRJhvGC-240">
          <mxGeometry width="100" height="100" relative="1" as="geometry">
            <mxPoint x="410" y="2550" as="sourcePoint" />
            <mxPoint x="510" y="2450" as="targetPoint" />
            <Array as="points">
              <mxPoint x="60" y="2620" />
            </Array>
          </mxGeometry>
        </mxCell>
        <mxCell id="OOxoE14an0iRBfRJhvGC-276" value="" style="edgeStyle=entityRelationEdgeStyle;fontSize=15;html=1;endArrow=ERzeroToMany;endFill=1;rounded=0;exitX=1;exitY=0.5;exitDx=0;exitDy=0;horizontal=1;" edge="1" parent="1" source="OOxoE14an0iRBfRJhvGC-342">
          <mxGeometry width="100" height="100" relative="1" as="geometry">
            <mxPoint x="460" y="2629.29" as="sourcePoint" />
            <mxPoint x="740" y="2629" as="targetPoint" />
            <Array as="points">
              <mxPoint x="480" y="2619.29" />
            </Array>
          </mxGeometry>
        </mxCell>
        <mxCell id="OOxoE14an0iRBfRJhvGC-277" value="" style="edgeStyle=entityRelationEdgeStyle;fontSize=15;html=1;endArrow=ERzeroToMany;endFill=1;rounded=0;exitX=1;exitY=0.5;exitDx=0;exitDy=0;entryX=0;entryY=0.5;entryDx=0;entryDy=0;horizontal=1;" edge="1" parent="1" target="OOxoE14an0iRBfRJhvGC-242">
          <mxGeometry width="100" height="100" relative="1" as="geometry">
            <mxPoint x="865" y="2629.58" as="sourcePoint" />
            <mxPoint x="1145" y="2629.29" as="targetPoint" />
            <Array as="points">
              <mxPoint x="885" y="2619.58" />
            </Array>
          </mxGeometry>
        </mxCell>
        <mxCell id="OOxoE14an0iRBfRJhvGC-278" value="warehouse" style="rounded=0;whiteSpace=wrap;html=1;horizontal=1;fontSize=15;" vertex="1" parent="1">
          <mxGeometry y="3050" width="120" height="60" as="geometry" />
        </mxCell>
        <mxCell id="OOxoE14an0iRBfRJhvGC-279" value="bill" style="rounded=0;whiteSpace=wrap;html=1;horizontal=1;fontSize=15;" vertex="1" parent="1">
          <mxGeometry x="536.5" y="3050" width="120" height="60" as="geometry" />
        </mxCell>
        <mxCell id="OOxoE14an0iRBfRJhvGC-280" value="product" style="rounded=0;whiteSpace=wrap;html=1;horizontal=1;fontSize=15;" vertex="1" parent="1">
          <mxGeometry y="3430" width="120" height="60" as="geometry" />
        </mxCell>
        <mxCell id="OOxoE14an0iRBfRJhvGC-281" value="bill_detail" style="rounded=0;whiteSpace=wrap;html=1;horizontal=1;fontSize=15;" vertex="1" parent="1">
          <mxGeometry x="640" y="3420" width="120" height="60" as="geometry" />
        </mxCell>
        <mxCell id="OOxoE14an0iRBfRJhvGC-282" value="&lt;u style=&quot;font-size: 15px;&quot;&gt;id&lt;/u&gt;" style="ellipse;whiteSpace=wrap;html=1;horizontal=1;fontSize=15;" vertex="1" parent="1">
          <mxGeometry x="-82.5" y="2923" width="110" height="60" as="geometry" />
        </mxCell>
        <mxCell id="OOxoE14an0iRBfRJhvGC-283" value="name" style="ellipse;whiteSpace=wrap;html=1;horizontal=1;fontSize=15;" vertex="1" parent="1">
          <mxGeometry x="92.5" y="2923" width="110" height="60" as="geometry" />
        </mxCell>
        <mxCell id="OOxoE14an0iRBfRJhvGC-284" value="address" style="ellipse;whiteSpace=wrap;html=1;horizontal=1;fontSize=15;" vertex="1" parent="1">
          <mxGeometry x="-72.5" y="3180" width="110" height="60" as="geometry" />
        </mxCell>
        <mxCell id="OOxoE14an0iRBfRJhvGC-285" value="status" style="ellipse;whiteSpace=wrap;html=1;horizontal=1;fontSize=15;" vertex="1" parent="1">
          <mxGeometry x="82.5" y="3180" width="110" height="60" as="geometry" />
        </mxCell>
        <mxCell id="OOxoE14an0iRBfRJhvGC-288" value="" style="endArrow=none;html=1;rounded=0;exitX=0.75;exitY=0;exitDx=0;exitDy=0;horizontal=1;fontSize=15;" edge="1" parent="1">
          <mxGeometry width="50" height="50" relative="1" as="geometry">
            <mxPoint x="82.5" y="3053" as="sourcePoint" />
            <mxPoint x="142.5" y="2983" as="targetPoint" />
          </mxGeometry>
        </mxCell>
        <mxCell id="OOxoE14an0iRBfRJhvGC-289" value="" style="endArrow=none;html=1;rounded=0;exitX=0.25;exitY=0;exitDx=0;exitDy=0;entryX=0.5;entryY=1;entryDx=0;entryDy=0;horizontal=1;fontSize=15;" edge="1" parent="1">
          <mxGeometry width="50" height="50" relative="1" as="geometry">
            <mxPoint x="22.5" y="3053" as="sourcePoint" />
            <mxPoint x="-32.5" y="2983" as="targetPoint" />
          </mxGeometry>
        </mxCell>
        <mxCell id="OOxoE14an0iRBfRJhvGC-290" value="" style="endArrow=none;html=1;rounded=0;exitX=0.5;exitY=0;exitDx=0;exitDy=0;entryX=0.345;entryY=1.052;entryDx=0;entryDy=0;entryPerimeter=0;horizontal=1;fontSize=15;" edge="1" parent="1" source="OOxoE14an0iRBfRJhvGC-284">
          <mxGeometry width="50" height="50" relative="1" as="geometry">
            <mxPoint x="-22.5" y="3193" as="sourcePoint" />
            <mxPoint x="33.5" y="3116" as="targetPoint" />
          </mxGeometry>
        </mxCell>
        <mxCell id="OOxoE14an0iRBfRJhvGC-291" value="" style="endArrow=none;html=1;rounded=0;exitX=0.5;exitY=0;exitDx=0;exitDy=0;entryX=0.75;entryY=1;entryDx=0;entryDy=0;horizontal=1;fontSize=15;" edge="1" parent="1" source="OOxoE14an0iRBfRJhvGC-285">
          <mxGeometry width="50" height="50" relative="1" as="geometry">
            <mxPoint x="132.5" y="3203" as="sourcePoint" />
            <mxPoint x="82.5" y="3113" as="targetPoint" />
          </mxGeometry>
        </mxCell>
        <mxCell id="OOxoE14an0iRBfRJhvGC-292" value="" style="edgeStyle=entityRelationEdgeStyle;fontSize=15;html=1;endArrow=ERzeroToMany;endFill=1;rounded=0;exitX=1;exitY=0.5;exitDx=0;exitDy=0;entryX=0;entryY=0.5;entryDx=0;entryDy=0;horizontal=1;" edge="1" parent="1" source="OOxoE14an0iRBfRJhvGC-278" target="OOxoE14an0iRBfRJhvGC-279">
          <mxGeometry width="100" height="100" relative="1" as="geometry">
            <mxPoint x="350" y="3170" as="sourcePoint" />
            <mxPoint x="450" y="3070" as="targetPoint" />
          </mxGeometry>
        </mxCell>
        <mxCell id="OOxoE14an0iRBfRJhvGC-293" value="" style="edgeStyle=entityRelationEdgeStyle;fontSize=15;html=1;endArrow=ERzeroToMany;endFill=1;rounded=0;exitX=1;exitY=0.5;exitDx=0;exitDy=0;entryX=0;entryY=0.5;entryDx=0;entryDy=0;horizontal=1;" edge="1" parent="1" source="OOxoE14an0iRBfRJhvGC-280">
          <mxGeometry width="100" height="100" relative="1" as="geometry">
            <mxPoint x="130" y="3459.29" as="sourcePoint" />
            <mxPoint x="640" y="3459.29" as="targetPoint" />
          </mxGeometry>
        </mxCell>
        <mxCell id="OOxoE14an0iRBfRJhvGC-295" value="" style="edgeStyle=entityRelationEdgeStyle;fontSize=15;html=1;endArrow=ERmany;rounded=0;entryX=0;entryY=0.25;entryDx=0;entryDy=0;exitX=0.5;exitY=1;exitDx=0;exitDy=0;horizontal=1;" edge="1" parent="1" source="OOxoE14an0iRBfRJhvGC-279" target="OOxoE14an0iRBfRJhvGC-281">
          <mxGeometry width="100" height="100" relative="1" as="geometry">
            <mxPoint x="620" y="3090" as="sourcePoint" />
            <mxPoint x="870" y="3430" as="targetPoint" />
            <Array as="points">
              <mxPoint x="810" y="3360" />
              <mxPoint x="760" y="3320" />
            </Array>
          </mxGeometry>
        </mxCell>
        <mxCell id="OOxoE14an0iRBfRJhvGC-299" value="&lt;u style=&quot;font-size: 15px;&quot;&gt;id&lt;/u&gt;" style="ellipse;whiteSpace=wrap;html=1;horizontal=1;fontSize=15;" vertex="1" parent="1">
          <mxGeometry x="-160" y="3340" width="110" height="60" as="geometry" />
        </mxCell>
        <mxCell id="OOxoE14an0iRBfRJhvGC-300" value="stock" style="ellipse;whiteSpace=wrap;html=1;horizontal=1;fontSize=15;" vertex="1" parent="1">
          <mxGeometry x="-67.5" y="3570" width="110" height="60" as="geometry" />
        </mxCell>
        <mxCell id="OOxoE14an0iRBfRJhvGC-301" value="name" style="ellipse;whiteSpace=wrap;html=1;horizontal=1;fontSize=15;" vertex="1" parent="1">
          <mxGeometry x="7.5" y="3300" width="110" height="60" as="geometry" />
        </mxCell>
        <mxCell id="OOxoE14an0iRBfRJhvGC-302" value="price" style="ellipse;whiteSpace=wrap;html=1;horizontal=1;fontSize=15;" vertex="1" parent="1">
          <mxGeometry x="170" y="3330" width="110" height="60" as="geometry" />
        </mxCell>
        <mxCell id="OOxoE14an0iRBfRJhvGC-303" value="status" style="ellipse;whiteSpace=wrap;html=1;horizontal=1;fontSize=15;" vertex="1" parent="1">
          <mxGeometry x="99" y="3570" width="110" height="60" as="geometry" />
        </mxCell>
        <mxCell id="OOxoE14an0iRBfRJhvGC-304" value="" style="endArrow=none;html=1;rounded=0;exitX=1;exitY=0;exitDx=0;exitDy=0;horizontal=1;fontSize=15;" edge="1" parent="1" target="OOxoE14an0iRBfRJhvGC-302">
          <mxGeometry width="50" height="50" relative="1" as="geometry">
            <mxPoint x="122.5" y="3430" as="sourcePoint" />
            <mxPoint x="192.5" y="3360" as="targetPoint" />
          </mxGeometry>
        </mxCell>
        <mxCell id="OOxoE14an0iRBfRJhvGC-305" value="" style="endArrow=none;html=1;rounded=0;exitX=0;exitY=0;exitDx=0;exitDy=0;entryX=1;entryY=1;entryDx=0;entryDy=0;horizontal=1;fontSize=15;" edge="1" parent="1" target="OOxoE14an0iRBfRJhvGC-299">
          <mxGeometry width="50" height="50" relative="1" as="geometry">
            <mxPoint x="2.5" y="3430" as="sourcePoint" />
            <mxPoint x="-17.5" y="3355" as="targetPoint" />
          </mxGeometry>
        </mxCell>
        <mxCell id="OOxoE14an0iRBfRJhvGC-306" value="" style="endArrow=none;html=1;rounded=0;exitX=0.5;exitY=0;exitDx=0;exitDy=0;entryX=0.328;entryY=1;entryDx=0;entryDy=0;entryPerimeter=0;horizontal=1;fontSize=15;" edge="1" parent="1" source="OOxoE14an0iRBfRJhvGC-300">
          <mxGeometry width="50" height="50" relative="1" as="geometry">
            <mxPoint x="72.5" y="3565" as="sourcePoint" />
            <mxPoint x="41.5" y="3490" as="targetPoint" />
          </mxGeometry>
        </mxCell>
        <mxCell id="OOxoE14an0iRBfRJhvGC-307" value="" style="endArrow=none;html=1;rounded=0;exitX=0.5;exitY=0;exitDx=0;exitDy=0;entryX=0.664;entryY=1.006;entryDx=0;entryDy=0;entryPerimeter=0;horizontal=1;fontSize=15;" edge="1" parent="1" source="OOxoE14an0iRBfRJhvGC-303">
          <mxGeometry width="50" height="50" relative="1" as="geometry">
            <mxPoint x="82.5" y="3575" as="sourcePoint" />
            <mxPoint x="82.5" y="3490" as="targetPoint" />
          </mxGeometry>
        </mxCell>
        <mxCell id="OOxoE14an0iRBfRJhvGC-308" value="" style="endArrow=none;html=1;rounded=0;exitX=0.5;exitY=0;exitDx=0;exitDy=0;entryX=0.5;entryY=1;entryDx=0;entryDy=0;horizontal=1;fontSize=15;" edge="1" parent="1">
          <mxGeometry width="50" height="50" relative="1" as="geometry">
            <mxPoint x="62.5" y="3430" as="sourcePoint" />
            <mxPoint x="62.5" y="3360" as="targetPoint" />
          </mxGeometry>
        </mxCell>
        <mxCell id="OOxoE14an0iRBfRJhvGC-311" value="&lt;u style=&quot;font-size: 15px;&quot;&gt;id&lt;/u&gt;" style="ellipse;whiteSpace=wrap;html=1;horizontal=1;fontSize=15;" vertex="1" parent="1">
          <mxGeometry x="385" y="2940" width="110" height="60" as="geometry" />
        </mxCell>
        <mxCell id="OOxoE14an0iRBfRJhvGC-312" value="created_date" style="ellipse;whiteSpace=wrap;html=1;horizontal=1;fontSize=15;" vertex="1" parent="1">
          <mxGeometry x="464" y="3193" width="110" height="60" as="geometry" />
        </mxCell>
        <mxCell id="OOxoE14an0iRBfRJhvGC-313" value="type" style="ellipse;whiteSpace=wrap;html=1;horizontal=1;fontSize=15;" vertex="1" parent="1">
          <mxGeometry x="536.5" y="2900" width="110" height="60" as="geometry" />
        </mxCell>
        <mxCell id="OOxoE14an0iRBfRJhvGC-314" value="totalPrice" style="ellipse;whiteSpace=wrap;html=1;horizontal=1;fontSize=15;" vertex="1" parent="1">
          <mxGeometry x="689" y="2923" width="110" height="60" as="geometry" />
        </mxCell>
        <mxCell id="OOxoE14an0iRBfRJhvGC-315" value="warehouse_id" style="ellipse;whiteSpace=wrap;html=1;horizontal=1;fontSize=15;" vertex="1" parent="1">
          <mxGeometry x="689" y="3193" width="110" height="60" as="geometry" />
        </mxCell>
        <mxCell id="OOxoE14an0iRBfRJhvGC-316" value="" style="endArrow=none;html=1;rounded=0;entryX=0.5;entryY=1;entryDx=0;entryDy=0;exitX=1;exitY=0;exitDx=0;exitDy=0;horizontal=1;fontSize=15;" edge="1" parent="1" target="OOxoE14an0iRBfRJhvGC-314">
          <mxGeometry width="50" height="50" relative="1" as="geometry">
            <mxPoint x="654" y="3053" as="sourcePoint" />
            <mxPoint x="724" y="2983" as="targetPoint" />
          </mxGeometry>
        </mxCell>
        <mxCell id="OOxoE14an0iRBfRJhvGC-317" value="" style="endArrow=none;html=1;rounded=0;exitX=0;exitY=0;exitDx=0;exitDy=0;entryX=1;entryY=1;entryDx=0;entryDy=0;horizontal=1;fontSize=15;" edge="1" parent="1" target="OOxoE14an0iRBfRJhvGC-311">
          <mxGeometry width="50" height="50" relative="1" as="geometry">
            <mxPoint x="534" y="3053" as="sourcePoint" />
            <mxPoint x="514" y="2978" as="targetPoint" />
          </mxGeometry>
        </mxCell>
        <mxCell id="OOxoE14an0iRBfRJhvGC-318" value="" style="endArrow=none;html=1;rounded=0;exitX=0.5;exitY=0;exitDx=0;exitDy=0;entryX=0.328;entryY=1;entryDx=0;entryDy=0;entryPerimeter=0;horizontal=1;fontSize=15;" edge="1" parent="1" source="OOxoE14an0iRBfRJhvGC-312">
          <mxGeometry width="50" height="50" relative="1" as="geometry">
            <mxPoint x="604" y="3188" as="sourcePoint" />
            <mxPoint x="573" y="3113" as="targetPoint" />
          </mxGeometry>
        </mxCell>
        <mxCell id="OOxoE14an0iRBfRJhvGC-319" value="" style="endArrow=none;html=1;rounded=0;exitX=0.5;exitY=0;exitDx=0;exitDy=0;entryX=1;entryY=1;entryDx=0;entryDy=0;horizontal=1;fontSize=15;" edge="1" parent="1" source="OOxoE14an0iRBfRJhvGC-315" target="OOxoE14an0iRBfRJhvGC-279">
          <mxGeometry width="50" height="50" relative="1" as="geometry">
            <mxPoint x="614" y="3198" as="sourcePoint" />
            <mxPoint x="614" y="3113" as="targetPoint" />
          </mxGeometry>
        </mxCell>
        <mxCell id="OOxoE14an0iRBfRJhvGC-320" value="" style="endArrow=none;html=1;rounded=0;exitX=0.5;exitY=0;exitDx=0;exitDy=0;entryX=0.5;entryY=1;entryDx=0;entryDy=0;horizontal=1;fontSize=15;" edge="1" parent="1" source="OOxoE14an0iRBfRJhvGC-279">
          <mxGeometry width="50" height="50" relative="1" as="geometry">
            <mxPoint x="595.79" y="3030" as="sourcePoint" />
            <mxPoint x="595.79" y="2960" as="targetPoint" />
          </mxGeometry>
        </mxCell>
        <mxCell id="OOxoE14an0iRBfRJhvGC-321" value="status" style="ellipse;whiteSpace=wrap;html=1;horizontal=1;fontSize=15;" vertex="1" parent="1">
          <mxGeometry x="760" y="3050" width="110" height="60" as="geometry" />
        </mxCell>
        <mxCell id="OOxoE14an0iRBfRJhvGC-322" value="" style="endArrow=none;html=1;rounded=0;exitX=0;exitY=0.5;exitDx=0;exitDy=0;entryX=1;entryY=0.5;entryDx=0;entryDy=0;horizontal=1;fontSize=15;" edge="1" parent="1" source="OOxoE14an0iRBfRJhvGC-321" target="OOxoE14an0iRBfRJhvGC-279">
          <mxGeometry width="50" height="50" relative="1" as="geometry">
            <mxPoint x="696" y="3203" as="sourcePoint" />
            <mxPoint x="624" y="3123" as="targetPoint" />
          </mxGeometry>
        </mxCell>
        <mxCell id="OOxoE14an0iRBfRJhvGC-323" value="product_id" style="ellipse;whiteSpace=wrap;html=1;horizontal=1;fontSize=15;" vertex="1" parent="1">
          <mxGeometry x="570" y="3560" width="110" height="60" as="geometry" />
        </mxCell>
        <mxCell id="OOxoE14an0iRBfRJhvGC-324" value="&lt;u style=&quot;font-size: 15px;&quot;&gt;id&lt;/u&gt;" style="ellipse;whiteSpace=wrap;html=1;horizontal=1;fontSize=15;" vertex="1" parent="1">
          <mxGeometry x="645" y="3290" width="110" height="60" as="geometry" />
        </mxCell>
        <mxCell id="OOxoE14an0iRBfRJhvGC-325" value="bill_id" style="ellipse;whiteSpace=wrap;html=1;horizontal=1;fontSize=15;" vertex="1" parent="1">
          <mxGeometry x="799" y="3310" width="110" height="60" as="geometry" />
        </mxCell>
        <mxCell id="OOxoE14an0iRBfRJhvGC-326" value="quatity" style="ellipse;whiteSpace=wrap;html=1;horizontal=1;fontSize=15;" vertex="1" parent="1">
          <mxGeometry x="736.5" y="3560" width="110" height="60" as="geometry" />
        </mxCell>
        <mxCell id="OOxoE14an0iRBfRJhvGC-327" value="" style="endArrow=none;html=1;rounded=0;entryX=0;entryY=1;entryDx=0;entryDy=0;exitX=1;exitY=0;exitDx=0;exitDy=0;horizontal=1;fontSize=15;" edge="1" parent="1" target="OOxoE14an0iRBfRJhvGC-325">
          <mxGeometry width="50" height="50" relative="1" as="geometry">
            <mxPoint x="760" y="3420" as="sourcePoint" />
            <mxPoint x="830" y="3350" as="targetPoint" />
          </mxGeometry>
        </mxCell>
        <mxCell id="OOxoE14an0iRBfRJhvGC-328" value="" style="endArrow=none;html=1;rounded=0;exitX=0.5;exitY=0;exitDx=0;exitDy=0;entryX=0.328;entryY=1;entryDx=0;entryDy=0;entryPerimeter=0;horizontal=1;fontSize=15;" edge="1" parent="1" source="OOxoE14an0iRBfRJhvGC-323">
          <mxGeometry width="50" height="50" relative="1" as="geometry">
            <mxPoint x="710" y="3555" as="sourcePoint" />
            <mxPoint x="679" y="3480" as="targetPoint" />
          </mxGeometry>
        </mxCell>
        <mxCell id="OOxoE14an0iRBfRJhvGC-329" value="" style="endArrow=none;html=1;rounded=0;exitX=0.5;exitY=0;exitDx=0;exitDy=0;entryX=0.664;entryY=1.006;entryDx=0;entryDy=0;entryPerimeter=0;horizontal=1;fontSize=15;" edge="1" parent="1" source="OOxoE14an0iRBfRJhvGC-326">
          <mxGeometry width="50" height="50" relative="1" as="geometry">
            <mxPoint x="720" y="3565" as="sourcePoint" />
            <mxPoint x="720" y="3480" as="targetPoint" />
          </mxGeometry>
        </mxCell>
        <mxCell id="OOxoE14an0iRBfRJhvGC-330" value="" style="endArrow=none;html=1;rounded=0;exitX=0.5;exitY=0;exitDx=0;exitDy=0;entryX=0.5;entryY=1;entryDx=0;entryDy=0;horizontal=1;fontSize=15;" edge="1" parent="1">
          <mxGeometry width="50" height="50" relative="1" as="geometry">
            <mxPoint x="700" y="3420" as="sourcePoint" />
            <mxPoint x="700" y="3350" as="targetPoint" />
          </mxGeometry>
        </mxCell>
        <mxCell id="OOxoE14an0iRBfRJhvGC-339" value="price" style="ellipse;whiteSpace=wrap;html=1;horizontal=1;fontSize=15;" vertex="1" parent="1">
          <mxGeometry x="860" y="3420" width="110" height="60" as="geometry" />
        </mxCell>
        <mxCell id="OOxoE14an0iRBfRJhvGC-340" value="" style="endArrow=none;html=1;rounded=0;exitX=0;exitY=0.5;exitDx=0;exitDy=0;entryX=1;entryY=0.5;entryDx=0;entryDy=0;horizontal=1;fontSize=15;" edge="1" parent="1" source="OOxoE14an0iRBfRJhvGC-339" target="OOxoE14an0iRBfRJhvGC-281">
          <mxGeometry width="50" height="50" relative="1" as="geometry">
            <mxPoint x="841.75" y="3452" as="sourcePoint" />
            <mxPoint x="841.75" y="3367" as="targetPoint" />
          </mxGeometry>
        </mxCell>
        <mxCell id="OOxoE14an0iRBfRJhvGC-341" value="có" style="rhombus;whiteSpace=wrap;html=1;horizontal=1;fontSize=15;" vertex="1" parent="1">
          <mxGeometry x="140" y="2590" width="80" height="80" as="geometry" />
        </mxCell>
        <mxCell id="OOxoE14an0iRBfRJhvGC-342" value="có" style="rhombus;whiteSpace=wrap;html=1;horizontal=1;fontSize=15;" vertex="1" parent="1">
          <mxGeometry x="550" y="2590" width="80" height="80" as="geometry" />
        </mxCell>
        <mxCell id="OOxoE14an0iRBfRJhvGC-344" value="" style="line;strokeWidth=1;rotatable=0;dashed=0;labelPosition=right;align=left;verticalAlign=middle;spacingTop=0;spacingLeft=6;points=[];portConstraint=eastwest;" vertex="1" parent="1">
          <mxGeometry x="459" y="2625" width="91" height="10" as="geometry" />
        </mxCell>
        <mxCell id="OOxoE14an0iRBfRJhvGC-345" value="có" style="rhombus;whiteSpace=wrap;html=1;horizontal=1;fontSize=15;" vertex="1" parent="1">
          <mxGeometry x="910" y="2590" width="80" height="80" as="geometry" />
        </mxCell>
        <mxCell id="OOxoE14an0iRBfRJhvGC-346" value="có" style="rhombus;whiteSpace=wrap;html=1;horizontal=1;fontSize=15;" vertex="1" parent="1">
          <mxGeometry x="270" y="3040" width="80" height="80" as="geometry" />
        </mxCell>
        <mxCell id="OOxoE14an0iRBfRJhvGC-347" value="có" style="rhombus;whiteSpace=wrap;html=1;horizontal=1;fontSize=15;" vertex="1" parent="1">
          <mxGeometry x="330" y="3420" width="80" height="80" as="geometry" />
        </mxCell>
        <mxCell id="OOxoE14an0iRBfRJhvGC-350" value="có" style="rhombus;whiteSpace=wrap;html=1;horizontal=1;fontSize=15;rotation=15;" vertex="1" parent="1">
          <mxGeometry x="580" y="3210" width="80" height="80" as="geometry" />
        </mxCell>
      </root>
    </mxGraphModel>
  </diagram>
</mxfile>
